<?xml version="1.0" standalone="no"?>
<!DOCTYPE svg PUBLIC "-//W3C//DTD SVG 1.1//EN" "http://www.w3.org/Graphics/SVG/1.1/DTD/svg11.dtd" >
<svg xmlns="http://www.w3.org/2000/svg">
<metadata>Generated by IcoMoon</metadata>
<defs>
<font id="icomoon" horiz-adv-x="1024">
<font-face units-per-em="1024" ascent="896" descent="-128" />
<missing-glyph horiz-adv-x="1024" />
<glyph unicode="&#x20;" d="" />
<glyph unicode="&#x78;" glyph-name="x" horiz-adv-x="1001" d="M281 543q-27-1-53-1h-83q-18 0-36.5-6t-32.5-18.5-23-32-9-45.5v-76h912v41q0 16-0.5 30t-0.5 18q0 13-5 29t-17 29.5-31.5 22.5-49.5 9h-133v-97h-438v97zM955 310v-52q0-23 0.5-52t0.5-58-10.5-47.5-26-30-33-16-31.5-4.5q-14-1-29.5-0.5t-29.5 0.5h-32l-45 128h-439l-44-128h-63q-20 0-45 1-25 0-41 9.5t-25.5 23-13.5 29.5-4 30v167h911zM163 247q-12 0-21-8.5t-9-21.5 9-21.5 21-8.5q13 0 22 8.5t9 21.5-9 21.5-22 8.5zM316 123q-8-26-14-48-5-19-10.5-37t-7.5-25-3-15 1-14.5 9.5-10.5 21.5-4h365q23 0 34 12t2 38q-5 13-9.5 30.5t-9.5 34.5q-5 19-11 39h-368zM336 498v228q0 11 2.5 23t10 21.5 20.5 15.5 34 6h188q31 0 51.5-14.5t20.5-52.5v-227h-327z" />
<glyph unicode="&#xe622;" glyph-name="close" d="M578.479 383.998l431.77 431.77c8.511 8.499 13.775 20.247 13.775 33.224s-5.265 24.725-13.775 33.224l-0.001 0.001c-8.498 8.51-20.244 13.775-33.22 13.775s-24.722-5.265-33.219-13.774l-431.78-431.763-431.77 431.721c-8.499 8.511-20.247 13.775-33.224 13.775s-24.725-5.265-33.224-13.775l-0.001-0.001c-8.511-8.499-13.775-20.247-13.775-33.224s5.265-24.725 13.775-33.224l431.771-431.722-431.77-431.77c-8.511-8.499-13.775-20.247-13.775-33.224s5.265-24.725 13.775-33.224l0.001-0.001c8.499-8.511 20.247-13.775 33.224-13.775s24.725 5.265 33.224 13.775l431.771 431.771 431.779-431.77c8.498-8.51 20.244-13.775 33.22-13.775s24.722 5.265 33.219 13.774l0.001 0.001c8.511 8.499 13.775 20.247 13.775 33.224s-5.265 24.725-13.775 33.224l-431.771 431.763z" />
<glyph unicode="&#xe637;" glyph-name="dsc-plus" d="M948.907 420.409h-400.498v400.498h-72.818v-400.498h-400.498v-72.818h400.498v-400.498h72.818v400.498h400.498z" />
<glyph unicode="&#xe650;" glyph-name="user" d="M512 896c-162.909 0-294.788-131.879-294.788-294.788 0-100.848 46.545-186.182 124.121-240.485-201.697-62.061-341.333-256-341.333-465.455 0-7.758 7.758-23.273 23.273-23.273s23.273 7.758 23.273 23.273c0 170.667 100.848 325.818 248.242 403.394 7.758 0 7.758 7.758 15.515 7.758s7.758 7.758 15.515 7.758 7.758 0 15.515 7.758 15.515 7.758 23.273 7.758c7.758 0 23.273 7.758 31.030 7.758 38.788-15.515 77.576-23.273 124.121-23.273 77.576 0 155.152 31.030 209.455 85.333 31.030 23.273 46.545 62.061 62.061 93.091 15.515 38.788 23.273 77.576 23.273 116.364-7.758 155.152-139.636 287.030-302.545 287.030zM752.485 492.606c-15.515-31.030-31.030-62.061-54.303-85.333-46.545-46.545-116.364-77.576-186.182-77.576-147.394 0-263.758 116.364-263.758 263.758s116.364 263.758 263.758 263.758 263.758-116.364 263.758-263.758c0-31.030-7.758-69.818-23.273-100.848zM938.667 166.788c-15.515 15.515-23.273 31.030-38.788 46.545-31.030 31.030-62.061 62.061-62.061 108.606 0 7.758-7.758 23.273-23.273 23.273-7.758 0-23.273-7.758-23.273-23.273 0-62.061 38.788-100.848 69.818-139.636 15.515-15.515 23.273-31.030 38.788-38.788 46.545-69.818 77.576-162.909 77.576-248.242 0-7.758 7.758-23.273 23.273-23.273s23.273 7.758 23.273 23.273c0 93.091-31.030 186.182-85.333 271.515z" />
<glyph unicode="&#xe653;" glyph-name="pwd" d="M735.399-38.736v60.374h-193.268v76.057h193.268v60.256h-193.268v257.179c118.861 14.858 211.191 116.621 211.191 239.491 0 133.129-108.249 241.378-241.378 241.378-133.012-0.118-241.378-108.367-241.378-241.496 0-122.871 92.33-224.516 211.191-239.491v-543.012h60.374v89.146l193.268 0.118zM330.94 654.504c0 99.759 81.246 181.004 181.004 181.004s181.004-81.246 181.004-181.004-81.246-181.004-181.004-181.004-181.004 81.246-181.004 181.004z" />
<glyph unicode="&#xe657;" glyph-name="up" horiz-adv-x="1940" d="M15.935-111.154c9.726-9.673 23.134-15.652 37.938-15.652s28.212 5.979 37.941 15.654l-0.002-0.002 877.162 878.234 876.619-878.234c9.778-9.776 23.284-15.822 38.203-15.822 29.841 0 54.032 24.191 54.032 54.032 0 14.922-6.049 28.431-15.829 38.21l-914.823 914.823c-9.754 9.828-23.268 15.912-38.203 15.912s-28.45-6.084-38.2-15.908l-914.839-914.826c-9.841-9.75-15.935-23.268-15.935-38.21s6.093-28.46 15.93-38.206l0.004-0.004" />
<glyph unicode="&#xe662;" glyph-name="search" d="M691.917 646.192c-122.070 122.11-320.031 122.11-442.142 0s-122.11-320.071 0-442.142c122.092-122.101 320.045-122.101 442.142-0.013v0.013c122.101 122.083 122.101 320.036 0.013 442.129 0 0.005-0.013 0.005-0.013 0.013zM181.74 136.015c-159.645 159.688-159.645 418.557 0 578.251 159.68 159.645 418.536 159.645 578.251 0 159.653-159.694 159.653-418.562 0-578.251-159.715-159.644-418.566-159.644-578.25 0zM945.61-49.643c-21.829-21.798-57.189-21.798-79 0l-78.961 79c-21.803 21.817-21.803 57.163 0 78.966 21.798 21.797 57.144 21.797 78.961 0l79-78.966c21.852-21.851 21.852-57.189 0-79z" />
<glyph unicode="&#xe663;" glyph-name="a" d="M737.089-68.999c-80.836-42.81-163.266-58.879-261.888-58.879-241.28-0.123-445.761 176.514-445.761 459.009 0 302.98 210.246 564.868 537.023 564.868 256 0 428.098-179.58 428.098-425.276 0-220.673-123.645-350.083-261.888-350.083-58.879 0-113.342 39.743-108.926 129.411h-5.765c-51.519-86.724-119.23-129.288-207.548-129.288-85.252 0-158.85 69.060-158.85 185.345 0 182.402 144.13 348.734 348.611 348.734 63.295 0 119.23-13.248 157.378-30.911l-49.924-266.426c-21.957-111.87-4.416-163.266 44.159-164.615 75.070-1.472 158.973 98.377 158.973 269.002 0 213.436-128.061 366.398-355.971 366.398-239.808 0-441.468-189.761-441.468-488.326 0-245.696 160.445-397.186 378.051-397.186 83.902 0 161.794 17.664 222.267 51.396l23.429-63.172zM656.13 566.402c-21.467 6.543-46.14 10.311-71.694 10.311-0.67 0-1.339-0.003-2.007-0.008l0.103 0.001c-129.533 0-233.92-122.173-233.92-264.832 0-64.767 32.383-111.747 97.15-111.747 85.252 0 163.266 108.926 179.458 200.065l30.911 166.21z" />
<glyph unicode="&#xe665;" glyph-name="down" horiz-adv-x="1913" d="M1894.469 875.855c11.906-11.91 19.27-28.362 19.27-46.534s-7.364-34.624-19.27-46.534l-891.486-891.486c-11.819-11.402-27.926-18.427-45.675-18.427-36.352 0-65.82 29.469-65.82 65.82 0 17.742 7.020 33.845 18.434 45.682l-0.019-0.020 891.512 891.525c11.903 11.907 28.349 19.272 46.515 19.272 18.179 0 34.635-7.376 46.54-19.297l0.001-0.001M19.332 876.772c11.902 11.882 28.334 19.229 46.482 19.229 18.193 0 34.661-7.384 46.572-19.319l890.648-892.366c11.881-11.905 19.228-28.339 19.228-46.489 0-36.348-29.466-65.814-65.814-65.814-18.198 0-34.671 7.386-46.585 19.324l-890.635 892.366c-11.882 11.902-19.229 28.334-19.229 46.482 0 18.199 7.389 34.673 19.331 46.584l0.001 0.001" />
<glyph unicode="&#xe666;" glyph-name="phone" d="M512 896c-282.71 0-512-229.29-512-511.994 0-152.319 32.771-235.476 138.322-329.245 25.307-21.927 57.612-6.067 36.503 19.592-83.158 82.811-120.36 182.988-120.36 309.653 0 252.614 204.801 457.529 457.535 457.529s457.535-204.915 457.535-457.529c0-252.62-204.915-457.535-457.535-457.535-85.021 0-161.18 19.819-224.393 67.758-23.796 18.081-6.067 68.928-1.403 99.251-0.699-8.282-45.831 37.793-47.813 28.579-2.448-11.901-21.581-75.58-19.126-102.983 3.147-36.396 22.273-58.203 45.831-76.046 67.065-50.846 156.869-71.024 246.906-71.024 282.71 0 512 229.176 512 512s-229.29 511.994-512 511.994M443.89 245.798s-64.145 22.984 8.396 141.122l61.464 93.536c60.878 80.942 44.553 78.608 90.27 68.229 35.572-6.419 115.344 172.144 96.802 193.951-69.047 54.352-183.227 31.493-255.773-86.657l-176.103-286.556c-72.541-118.144-85.719-265.094 50.267-298.684 29.039-20.064 159.783 160.595 124.677 175.058M513.75 480.456c60.878 80.942 44.553 78.608 90.27 68.229 36.742 16.559 115.344 172.144 96.802 193.951M711.785 734.474s3.38-53.181-21.109-104.38c-24.495-51.199-67.996-81.993-67.996-81.993 51.199-24.489 113.248-2.681 137.736 48.637 24.495 51.199 2.568 113.248-48.631 137.736M456.484 229.699s-6.766-52.835-40.588-98.427c-33.822-45.61-82.34-67.537-82.34-67.537 45.604-33.822 110.68-24.142 144.502 21.461 33.828 45.61 24.142 110.68-21.575 144.502" />
<glyph unicode="&#xe667;" glyph-name="web" horiz-adv-x="1133" d="M1125.347 379.656l-487.708 485.999c-40.453 40.453-105.405 40.453-145.864 0l-484.295-485.999c-10.25-10.261-9.68-26.22 0-36.465 10.261-10.256 26.215-9.692 36.465 0l59.261 59.255v-337.298c5.128-104.266 88.877-188.021 193.148-193.154h540.702c104.26 5.134 188.021 88.894 193.148 193.154v337.298l59.244-59.255c10.256-10.256 26.22-10.256 36.47 0 9.692 10.25 9.692 26.779-0.57 36.465M958.744 436.284v-355.991c-4.883-72.171-62.406-130.236-135.124-135.124h-515c-72.171 4.883-130.236 62.4-135.118 135.124v355.991c0 3.8-1.088 8.142-3.259 11.395l358.703 360.333c18.99 18.99 50.469 18.99 69.459 0l363.045-360.874c-1.63-3.259-2.706-7.054-2.706-10.854M566.419 160.298c-74.069 0-144.719 33.604-190.3 91.731 5.128 7.977 7.977 17.663 7.977 27.343 0 29.069-23.36 52.993-52.988 53.563-29.627 0.564-52.988-23.366-53.557-52.988 0-29.069 22.79-52.993 51.848-53.557 97.999-130.475 283.74-157.254 414.215-58.685 17.668 13.104 33.616 28.488 47.86 45.005 3.419 3.983 5.122 9.122 5.122 14.244 29.063 3.424 50.145 29.622 46.72 58.691-3.419 29.058-29.627 50.139-58.685 46.715-29.058-3.419-50.139-29.622-46.72-58.691 1.14-10.814 5.698-20.506 12.535-28.488-45.575-53.546-112.807-84.883-184.027-84.883" />
<glyph unicode="&#xe668;" glyph-name="address" d="M513.125-128c-192.611 0-400.178 40.335-400.178 128.704 0 62.091 99.253 94.269 181.283 110.136 1.322 0.244 2.843 0.384 4.396 0.384 14.016 0 25.379-11.362 25.379-25.379 0-12.203-8.613-22.395-20.092-24.827l-0.166-0.029c-106.048-19.945-141.399-49.406-141.399-59.829 0-23.107 118.737-77.947 348.971-77.947 230.218 0 348.955 54.39 348.955 77.947 0 10.878-37.162 40.79-146.827 61.185-11.909 2.237-20.799 12.555-20.799 24.949 0 1.593 0.147 3.152 0.428 4.664l-0.024-0.157c2.464 11.906 12.864 20.728 25.324 20.728 1.459 0 2.89-0.121 4.283-0.353l-0.151 0.021c86.108-15.867 188.533-47.585 188.533-111.036 1.806-88.825-205.306-129.16-397.917-129.16M513.125-45.52c-0.070-0.001-0.154-0.001-0.237-0.001-10.74 0-20.235 5.333-25.98 13.495l-0.067 0.101-224.334 330.392c-136.031 138.283-134.199 360.667 4.083 496.694 138.293 136.031 360.673 134.199 496.704-4.088 134.445-136.681 134.445-355.929 0-492.605l-224.339-330.387c-5.768-8.21-15.17-13.528-25.818-13.6h-0.011M513.125 832.334c-158.938 0.496-288.185-127.947-288.681-286.885-0.001-0.262-0.001-0.572-0.001-0.882 0-79.698 32.394-151.83 84.733-203.948l0.010-0.010 3.623-4.533 199.861-294.125 199.861 294.125 3.628 4.533c112.638 112.136 113.042 294.356 0.901 406.988-52.122 52.343-124.245 84.734-203.933 84.737h-0.001M513.125 409.043c-91.107 0-164.966 73.859-164.966 164.966s73.859 164.966 164.966 164.966c91.107 0 164.966-73.859 164.966-164.966s-73.859-164.966-164.966-164.966M513.125 675.979c-56.319 0-101.97-45.651-101.97-101.97s45.651-101.97 101.97-101.97c56.314 0 101.97 45.651 101.97 101.97s-45.656 101.97-101.97 101.97" />
<glyph unicode="&#xe669;" glyph-name="delete" d="M65.084 705.951h893.816c27.104 0 49.071 21.962 49.076 49.061 0 0.005 0 0.010 0 0.015 0 27.096-21.965 49.061-49.061 49.061h-893.831c-0.005 0-0.010 0-0.015 0-27.096 0-49.061-21.965-49.061-49.061v0c-0.005-27.099 21.962-49.071 49.061-49.076h0.015zM280.389-128h450.376c93.993 0.123 170.157 76.314 170.229 170.306v712.716c0 0.009 0 0.020 0 0.031 0 27.090-21.956 49.052-49.045 49.061h-0.001c-27.099 0.010-49.081-21.952-49.092-49.051v-712.757c0-39.779-32.38-72.169-72.169-72.169h-450.381c-39.841 0.041-72.123 32.328-72.169 72.169v507.454c-0.284 26.884-22.144 48.569-49.069 48.569s-48.785-21.684-49.068-48.542v-507.481c0.129-94.034 76.35-170.224 170.389-170.306M625.306 4.558c27.104 0 49.066 21.972 49.066 49.071v496.131c0 0.003 0 0.007 0 0.010 0 27.096-21.965 49.061-49.061 49.061-0.002 0-0.004 0-0.005 0v0c-27.101 0-49.071-21.97-49.071-49.071v0-496.131c0-27.094 21.977-49.071 49.071-49.071M394.379 4.558c27.099 0 49.066 21.972 49.066 49.071v496.131c-0.284 26.884-22.144 48.569-49.069 48.569s-48.785-21.684-49.068-48.542v-496.158c0.005-27.094 21.972-49.071 49.071-49.071M471.305 705.951c0.008 0 0.018 0 0.028 0 16.825 0 31.668 8.491 40.475 21.422l0.109 0.17c8.944-13.125 23.821-21.631 40.684-21.631 27.104 0 49.076 21.972 49.076 49.076 0 0.012 0 0.024 0 0.036v-0.002 55.638c-2.494 49.554-44.68 87.704-94.234 85.215-46.068-2.319-82.896-39.147-85.21-85.215v-55.638c0-0.002 0-0.003 0-0.005 0-27.098 21.968-49.066 49.066-49.066 0.002 0 0.004 0 0.005 0v0" />
<glyph unicode="&#xe66a;" glyph-name="problem" d="M1024.591 402.686v-37.611c-0.23-1.496-0.653-2.995-0.66-4.492-0.089-14.373-1.572-28.623-3.383-42.859-5.044-39.087-13.765-74.41-25.991-108.050l1.106 3.482c-48.837-137.627-153.806-247.906-288.863-303.316-52.609-21.582-107.343-33.965-164.139-37.155-1.217-0.070-2.415-0.449-3.621-0.686h-51.815c-1.222 0.225-2.436 0.545-3.667 0.655-9.983 0.874-19.993 1.501-29.954 2.589-33.869 3.696-67 10.924-99.36 21.562-89.816 29.518-166.106 79.743-227.946 151.187-76.098 87.92-117.598 190.247-124.813 306.392-0.223 3.58-0.978 7.126-1.485 10.69v37.611c0.317 1.482 0.796 2.951 0.925 4.448 0.799 9.292 1.424 18.6 2.286 27.885 2.761 29.731 8.103 59.018 16.478 87.664 38.335 131.119 116.106 232.146 233.152 302.372 75.427 45.258 157.737 68.087 245.634 70.726 21.736 0.653 43.426-0.195 65.080-2.324 26.511-2.606 52.711-7.003 78.408-13.96 127.886-34.628 228.583-107.258 300.997-218.1 50.422-77.181 77.499-162.279 80.978-254.639 0.050-1.367 0.43-2.718 0.655-4.072M485.611 245.099v-0.15c10.863 0 21.737-0.327 32.584 0.085 13.236 0.501 18.741 6.472 18.971 19.73 0.218 12.47 1.919 24.706 5.812 36.563 8.359 25.451 22.906 46.896 42.62 64.897 6.169 5.634 12.633 10.943 18.804 16.577 19.027 17.369 38.050 34.745 56.895 52.309 4.151 3.867 7.88 8.289 11.272 12.853 13.916 18.727 22.806 39.763 27.744 62.489 5.251 24.154 6.242 48.533 3.552 73.096-2.279 20.804-7.53 40.757-16.918 59.512-16.342 32.645-41.722 56.401-73.451 73.646-25.982 14.12-54.149 20.971-83.417 23.435-28.159 2.37-56.213 1.304-84.019-4.045-26.931-5.18-52.347-14.378-75.182-29.79-40.698-27.467-67.197-65.165-80.012-112.507-5.039-18.617-7.814-37.599-8.49-56.867-0.329-9.386 6.414-16.258 15.654-16.274 20.336-0.033 40.67-0.061 61.004-0.084 2.089-0.002 4.187-0.068 6.266 0.092 8.234 0.635 14.401 6.971 15.123 15.146 0.66 7.483 1.306 14.986 2.41 22.413 2.331 15.652 6.668 30.723 14.179 44.751 12.073 22.545 29.551 38.835 54.257 46.722 8.212 2.728 17.788 4.73 27.684 5.619l0.499 0.036c18.433 1.619 36.739 1.135 54.717-3.691 32.454-8.714 53.847-29.067 63.84-61.208 3.79-12.189 5.232-24.744 5.37-37.482 0.15-13.713-2.674-26.794-7.953-39.413-8.181-19.551-21.29-35.633-36.516-49.854-19.949-18.633-40.306-36.826-59.209-56.55-11.571-12.074-22.686-24.544-32.456-38.158-8.516-11.865-15.073-24.683-19.040-38.781-4.344-15.44-7.309-31.16-9.337-47.046-0.933-7.3-1.689-14.683-1.729-22.032-0.050-9.24 7.062-15.933 16.304-16.018 10.72-0.098 21.443-0.023 32.168-0.023M418.405 128.737c-0.608-33.533 21.84-54.705 40.9-62.465 12.28-5.002 25.011-6.426 38.084-4.494 16.091 2.38 30.008 9.155 40.98 21.334 14.2 15.764 19.572 34.359 16.666 55.243-3.703 26.616-19.088 43.941-44.006 52.68-14.075 4.938-28.726 4.776-43.268 1.489-24.027-5.436-50.013-28.228-49.356-63.786" />
<glyph unicode="&#xe66c;" glyph-name="edit" d="M109.658-123.286c-28.317 0-51.915 9.449-68.431 28.328-14.159 16.516-23.598 42.465-23.598 73.14v205.297c0 14.159 11.796 30.674 25.955 49.552 21.235 30.68 47.195 68.431 47.195 125.070 0 54.267-23.598 84.946-44.833 113.264-16.521 21.235-28.317 37.756-28.317 61.349v205.297c0 30.674 7.077 56.634 21.235 75.513 16.521 21.235 40.119 33.032 70.793 33.032h500.26l-37.756-61.354h-445.988c-30.674 0-51.915-23.592-51.915-56.629v-202.935l4.725-4.72c9.434-9.439 66.068-75.513 66.068-162.816 0-70.798-58.992-153.387-68.431-162.832l-4.72-4.709v-200.583c0-33.037 28.317-56.629 44.833-56.629l764.549 7.077c30.674 0 51.91 23.592 51.91 56.629v200.577l-4.714 4.72s-61.354 68.431-61.354 153.377c0 80.232 75.507 172.26 113.264 212.379l25.955-63.716c-7.071-7.077-16.516-21.235-25.955-35.394-21.235-30.674-47.195-63.711-47.195-113.269 0-37.751 11.801-68.431 28.322-99.1 14.153-23.603 28.312-47.201 28.312-68.436v-214.736c0-25.96-9.439-51.91-25.955-70.788-16.516-18.883-40.119-30.674-66.073-30.674l-788.141 4.72zM226.817 29.596c-15.243 0-22.868 10.164-22.868 30.492s7.624 30.492 22.868 30.492h546.271c15.249 0 22.873-10.164 22.873-30.492s-7.624-30.492-22.873-30.492h-546.271zM436.385 142.593l-1.231 215.909c229.035 334.305 346.919 506.090 356.755 513.11 11.661 12.787 24.166 20.229 37.506 22.336 16.015 2.524 29.365 4.631 47.482-6.19l90.031-67.867c17.136-21.913 20.646-26.836 23.175-42.846 1.684-10.68 0.276-19.108-10.962-34.559l-349.725-522.94-193.031-76.952zM226.817 286.218c-15.243 0-22.868 10.164-22.868 30.497 0 20.317 7.624 30.487 22.868 30.487h78.767c15.243 0 22.868-10.164 22.868-30.487 0-20.328-7.624-30.497-22.868-30.497h-78.767zM226.817 542.841c-15.243 0-25.407 10.164-27.947 33.032-2.545 22.868 12.704 35.571 27.947 35.571h78.767c15.243 0 27.947-12.704 25.407-35.571 0-20.323-12.704-33.032-25.407-33.032h-78.767z" />
<glyph unicode="&#xe66d;" glyph-name="problem1" d="M1024.591 402.686v-37.611c-0.23-1.496-0.653-2.995-0.66-4.492-0.089-14.373-1.572-28.623-3.383-42.859-5.044-39.087-13.765-74.41-25.991-108.050l1.106 3.482c-48.837-137.627-153.806-247.906-288.863-303.316-52.609-21.582-107.343-33.965-164.139-37.155-1.217-0.070-2.415-0.449-3.621-0.686h-51.815c-1.222 0.225-2.436 0.545-3.667 0.655-9.983 0.874-19.993 1.501-29.954 2.589-33.869 3.696-67 10.924-99.36 21.562-89.816 29.518-166.106 79.743-227.946 151.187-76.098 87.92-117.598 190.247-124.813 306.392-0.223 3.58-0.978 7.126-1.485 10.69v37.611c0.317 1.482 0.796 2.951 0.925 4.448 0.799 9.292 1.424 18.6 2.286 27.885 2.761 29.731 8.103 59.018 16.478 87.664 38.335 131.119 116.106 232.146 233.152 302.372 75.427 45.258 157.737 68.087 245.634 70.726 21.736 0.653 43.426-0.195 65.080-2.324 26.511-2.606 52.711-7.003 78.408-13.96 127.886-34.628 228.583-107.258 300.997-218.1 50.422-77.181 77.499-162.279 80.978-254.639 0.050-1.367 0.43-2.718 0.655-4.072M485.611 245.099v-0.15c10.863 0 21.737-0.327 32.584 0.085 13.236 0.501 18.741 6.472 18.971 19.73 0.218 12.47 1.919 24.706 5.812 36.563 8.359 25.451 22.906 46.896 42.62 64.897 6.169 5.634 12.633 10.943 18.804 16.577 19.027 17.369 38.050 34.745 56.895 52.309 4.151 3.867 7.88 8.289 11.272 12.853 13.916 18.727 22.806 39.763 27.744 62.489 5.251 24.154 6.242 48.533 3.552 73.096-2.279 20.804-7.53 40.757-16.918 59.512-16.342 32.645-41.722 56.401-73.451 73.646-25.982 14.12-54.149 20.971-83.417 23.435-28.159 2.37-56.213 1.304-84.019-4.045-26.931-5.18-52.347-14.378-75.182-29.79-40.698-27.467-67.197-65.165-80.012-112.507-5.039-18.617-7.814-37.599-8.49-56.867-0.329-9.386 6.414-16.258 15.654-16.274 20.336-0.033 40.67-0.061 61.004-0.084 2.089-0.002 4.187-0.068 6.266 0.092 8.234 0.635 14.401 6.971 15.123 15.146 0.66 7.483 1.306 14.986 2.41 22.413 2.331 15.652 6.668 30.723 14.179 44.751 12.073 22.545 29.551 38.835 54.257 46.722 8.212 2.728 17.788 4.73 27.684 5.619l0.499 0.036c18.433 1.619 36.739 1.135 54.717-3.691 32.454-8.714 53.847-29.067 63.84-61.208 3.79-12.189 5.232-24.744 5.37-37.482 0.15-13.713-2.674-26.794-7.953-39.413-8.181-19.551-21.29-35.633-36.516-49.854-19.949-18.633-40.306-36.826-59.209-56.55-11.571-12.074-22.686-24.544-32.456-38.158-8.516-11.865-15.073-24.683-19.040-38.781-4.344-15.44-7.309-31.16-9.337-47.046-0.933-7.3-1.689-14.683-1.729-22.032-0.050-9.24 7.062-15.933 16.304-16.018 10.72-0.098 21.443-0.023 32.168-0.023M418.405 128.737c-0.608-33.533 21.84-54.705 40.9-62.465 12.28-5.002 25.011-6.426 38.084-4.494 16.091 2.38 30.008 9.155 40.98 21.334 14.2 15.764 19.572 34.359 16.666 55.243-3.703 26.616-19.088 43.941-44.006 52.68-14.075 4.938-28.726 4.776-43.268 1.489-24.027-5.436-50.013-28.228-49.356-63.786" />
<glyph unicode="&#xe66e;" glyph-name="view" d="M511.132 593.448c118.107 0 193.943-59.491 236.761-109.408 32.691-38.096 52.589-78.139 62.129-100.306-4.035-9.551-7.451-16.735-11.103-23.777l0.907 1.924c-9.86-19.441-26.882-48.722-51.92-77.913-42.838-49.917-118.681-109.422-236.774-109.422-118.107 0-193.943 59.505-236.768 109.408-25.078 29.24-42.080 58.507-51.94 77.941-2.784 5.198-6.236 12.465-9.436 19.866l-0.862 2.24c4.070 9.651 7.531 16.928 11.232 24.061l-0.907-1.921c9.833 19.4 26.828 48.667 51.913 77.9 42.818 49.917 118.647 109.408 236.768 109.408M511.132 663.271c-144.641 0-237.41-72.748-289.76-133.776-29.575-34.467-49.603-68.928-61.192-91.785-4.054-7.603-8.775-17.687-13.081-27.987l-0.989-2.667c-5.508-13.509-6.471-16.96-6.471-23.062s0.963-9.553 6.471-23.056c5.291-12.96 10.011-23.044 15.127-32.89l-1.057 2.236c11.582-22.857 31.618-57.318 61.192-91.792 52.35-61.022 145.119-133.769 289.76-133.769 144.627 0 237.396 72.748 289.76 133.769 29.568 34.474 49.596 68.941 61.186 91.792 4.041 7.58 8.764 17.664 13.076 27.962l1 2.692c5.508 13.503 6.861 14.528 8.207 23.062-1.346 7.148-27.101 79.793-83.483 145.502-52.35 61.022-145.119 133.769-289.746 133.769M512 255.998c-70.595 0-127.995 57.407-127.995 128.002 0 70.588 57.4 127.995 127.995 127.995 70.588 0 127.995-57.407 127.995-127.995s-57.407-128.002-127.995-128.002M512 442.179c-32.089 0-58.186-26.090-58.186-58.179s26.096-58.186 58.186-58.186c32.089 0 58.186 26.096 58.186 58.186s-26.096 58.179-58.186 58.179M651.632 896h325.703c25.768 0 46.658-20.459 46.658-46.665v-325.703h-93.090v279.271h-279.271v93.097zM372.361 896h-325.703c-26.206 0-46.658-20.896-46.658-46.665v-325.703h93.090v279.271h279.271v93.097zM651.632-128h325.703c26.206 0 46.658 20.896 46.658 46.658v325.703h-93.090v-279.271h-279.271v-93.090zM372.361-128h-325.703c-25.768 0-46.658 20.452-46.658 46.658v325.703h93.090v-279.271h279.271v-93.090z" />
<glyph unicode="&#xe66f;" glyph-name="arr-l" d="M512-128c283.924 0 512 228.076 512 512 0 283.93-228.076 512-512 512s-512-228.070-512-512c0-283.924 228.076-512 512-512M605.092 616.73c9.308 0 18.621-4.654 23.276-9.308 13.962-13.967 13.962-37.233 0-51.2l-172.221-172.221 172.221-172.216c13.962-13.967 13.962-37.238 0-51.2-13.967-13.967-37.238-13.967-51.2 0l-195.492 195.492c-13.967 13.967-13.967 37.228 0 51.2l195.492 195.487c9.308 9.313 18.616 13.967 27.924 13.967" />
<glyph unicode="&#xe670;" glyph-name="arr-r" d="M512.001 895.998c-0.437 0.001-0.954 0.002-1.472 0.002-281.958 0-510.53-228.572-510.53-510.53 0-0.517 0.001-1.034 0.002-1.551v0.080c0-283.929 228.075-511.999 511.999-511.999s511.999 228.070 511.999 511.999c0 283.924-228.075 511.999-511.999 511.999M418.909 151.27c-9.308 0-18.621 4.654-23.275 9.308-13.957 13.967-13.957 37.233 0 51.2l172.221 172.221-172.221 172.216c-13.957 13.962-13.957 37.238 0 51.2 13.967 13.962 37.243 13.962 51.2 0l195.491-195.491c13.967-13.962 13.967-37.227 0-51.2l-195.491-195.486c-9.303-9.313-18.616-13.967-27.924-13.967" />
<glyph unicode="&#xe671;" glyph-name="tel-alt" d="M102.58 727.957c-31.939-39.816-114.661-256.044 188.838-566.486 319.753-327.203 531.005-225.681 566.486-188.838l-251.773 251.781c-29.901-29.793-48.078-56.143-121.943 3.944-48.771 39.745-105.021 93.199-153.792 153.534-34.2 42.255-7.299 63.076 23.963 94.294l-251.779 251.771zM196.998 822.376l-62.941-62.943 251.77-251.771 62.943 62.943c17.393 17.393 17.393 45.541 0 62.943l-188.829 188.828c-17.393 17.393-45.549 17.393-62.943 0zM700.541 318.824l-62.943-62.943 251.78-251.772 62.943 62.943c17.393 17.393 17.393 45.549 0 62.943l-188.828 188.829c-17.403 17.403-45.55 17.403-62.953 0z" />
<glyph unicode="&#xe672;" glyph-name="download" d="M128 832c-35.343 0-64-28.657-64-64v-768c0-35.348 28.657-64 64-64h768c35.343 0 64 28.652 64 64v768c0 35.343-28.657 64-64 64h-768zM128 896h768c70.692 0 128-57.308 128-128v-768c0-70.697-57.308-128-128-128h-768c-70.692 0-128 57.303-128 128v768c0 70.692 57.308 128 128 128M544 192c0-17.673-14.327-32-32-32s-32 14.327-32 32v0 384c0 17.673 14.327 32 32 32s32-14.327 32-32v0-384zM534.656 169.344c-5.741-5.482-13.536-8.857-22.12-8.857-17.701 0-32.051 14.35-32.051 32.051 0 8.585 3.375 16.381 8.871 22.135l181.047 180.98c5.758 5.606 13.632 9.064 22.314 9.064 17.673 0 32-14.327 32-32 0-8.682-3.457-16.556-9.071-22.321l-180.99-181.052zM486.912 169.344c6.165-5.799 14.491-9.363 23.649-9.363s17.484 3.563 23.667 9.379l-0.018-0.017c6.053 5.678 9.824 13.727 9.824 22.656s-3.771 16.978-9.807 22.64l-0.017 0.016-189.123 180.992c-6.167 5.795-14.492 9.355-23.649 9.355s-17.482-3.56-23.667-9.372l0.018 0.017c-6.031-5.677-9.786-13.713-9.786-22.625s3.755-16.948 9.77-22.611l0.016-0.015 189.123-181.053z" />
<glyph unicode="&#xe673;" glyph-name="out" d="M990.755 311.427h-15.765l-191.605 191.605c-12.682 12.682-35.649 6.283-48.214-6.283-12.682-12.682-15.765-34.847-3.083-47.302l138.021-138.021h-573.564c-17.847-0.023-32.309-14.485-32.332-32.33v-6.741c0.023-17.847 14.485-32.309 32.33-32.332h694.323c17.847 0.023 32.309 14.485 32.332 32.33v6.741c-0.105 17.824-14.502 32.332-32.443 32.332M865.762 84.746c-15.426 0-30.618-9.026-33.59-23.195-2.059-9.939-2.17-47.185-2.17-47.185-2.059-46.617-13.712-73.696-76.551-71.409h-573.675c-59.522 0-104.314 48.214-104.314 107.742v666.33c0 59.528 44.792 107.742 104.314 107.742h556.307c59.528 0 87.174-25.365 87.174-84.893 0 0-0.913-46.728 0.801-56.784 2.515-14.625 22.849-26.277 38.621-26.277 15.537 0 36.678 11.542 39.077 26.277 3.2 19.31-0.345 78.265-0.345 78.265 0 74.264-60.329 134.593-134.593 134.593h-631.483c-74.269 0-134.593-60.329-134.593-134.593v-754.762c0-74.264 60.323-134.593 134.593-134.593h631.366c74.264 0 126.824 27.079 133.452 134.593 0 0 2.627 41.475 0.117 55.070-2.515 14.168-19.199 23.078-34.508 23.078" />
<glyph unicode="&#xe674;" glyph-name="addimg" d="M974 145.765h-120.181v120.197c0 26.711-20.029 46.745-46.74 46.745s-46.745-20.034-46.745-46.745v-126.873h-133.555c-26.706 0-46.745-20.034-46.745-46.745 0-26.706 20.040-46.745 46.745-46.745h126.878v-126.852c0-26.711 20.034-46.74 46.74-46.74 26.711 0 46.745 20.029 46.745 46.74v126.852h126.852c26.716 0 46.75 20.040 46.75 46.745 6.671 26.706-20.029 53.422-46.745 53.422M505.614 24.396h-418.082c-15.503 0-27.136 11.627-27.136 27.172v759.108c0 15.508 11.633 27.146 27.136 27.146h740.85c15.478 0 27.115-11.638 27.115-27.146v-410.315c0-15.498 11.663-27.131 27.182-27.131 15.498 0 27.141 11.627 27.141 27.131v437.456c0 31.032-27.141 58.178-58.178 58.178h-791.251c-31.017 0-58.173-27.146-58.173-58.178v-813.426c0-31.007 27.156-58.158 58.173-58.158h445.223c15.498 0 27.136 11.658 27.136 27.156-0.005 19.384-11.633 31.007-27.136 31.007M499.906 159.118c20.029 40.064 66.775 66.775 113.52 66.775h53.427v60.103c0 53.417 33.387 100.162 80.128 120.197l-66.78 200.319-233.717-300.481-66.775 106.839-247.054-253.751h367.251zM379.709 586.487c0 40.054-33.387 73.446-73.456 73.446-40.064 0-73.451-33.392-73.451-73.446 0-40.069 33.387-73.456 73.451-73.456 40.069 0 73.456 33.387 73.456 73.456" />
<glyph unicode="&#xe675;" glyph-name="myArticle" d="M914.363 646.842c14.088 0.028 25.502 11.442 25.53 25.527v70.31c0 84.537-70.53 153.321-157.129 153.321h-541.553c-86.59 0-157.112-68.784-157.112-153.321v-717.366c0-84.537 70.514-153.321 157.112-153.321h435.294c6.623 0 12.939 2.616 17.707 7.177l237.858 229.059c4.812 4.646 7.806 11.148 7.823 18.35v314.468c-0.028 14.091-11.446 25.507-25.536 25.53h-0.002c-14.077-0.061-25.473-11.454-25.538-25.524v-303.378l-222.643-214.381h-424.963c-58.453 0-106.052 45.853-106.052 102.145v717.35c0 56.284 47.484 102.145 106.052 102.145h541.553c58.469 0 106.061-45.861 106.061-102.145v-70.299c0-0.012 0-0.027 0-0.041 0-14.118 11.426-25.567 25.535-25.604h0.004M298.041 460.598h428.009c14.095 0.024 25.515 11.443 25.538 25.536v0.002c-0.061 14.080-11.458 25.477-25.532 25.538h-428.015c-14.091-0.028-25.507-11.446-25.53-25.536v-0.002c0.024-14.092 11.439-25.51 25.527-25.538h0.003M298.041 287.724h428.009c14.093 0.028 25.51 11.445 25.538 25.536v0.003c-0.061 14.080-11.458 25.477-25.532 25.538h-428.015c-14.093-0.024-25.511-11.444-25.53-25.537v-0.002c0.024-14.092 11.439-25.51 25.527-25.538h0.003M298.041 633.589h207.866c14.095 0.024 25.515 11.443 25.538 25.536v0.002c-0.028 14.091-11.446 25.507-25.536 25.53h-207.868c-14.088-0.028-25.502-11.442-25.53-25.527v-0.003c-0.108-14.023 11.407-25.538 25.53-25.538M652.382-50.201c14.088 0.028 25.502 11.442 25.53 25.527v156.908h160.912c14.095 0.024 25.515 11.443 25.538 25.536v0.002c-0.066 14.078-11.46 25.473-25.532 25.538h-186.448c-14.095-0.024-25.515-11.443-25.538-25.536v-182.438c0.024-14.095 11.443-25.515 25.536-25.538h0.002" />
<glyph unicode="&#xe676;" glyph-name="change" horiz-adv-x="1228" d="M837.477 65.425c-67.641-47.494-146.992-71.137-227.894-70.183-10.742 0.176-21.3 0.97-31.858 1.748-4.275 0.435-8.558 1.138-12.833 1.748-8.383 1.054-16.498 2.092-24.613 3.764-4.97 0.87-9.955 2.26-14.75 3.39-7.94 1.748-15.796 3.489-23.567 5.772-3.665 1.389-7.153 2.519-10.826 4-11.033 3.381-19.801 6.615-28.361 10.244l1.924-0.724c-1.924 0.87-3.84 1.573-5.764 2.351-14.061 6.332-23.804 11.148-33.411 16.188l3.729-1.782c-0.344 0.267-0.87 0.435-1.214 0.71-32.645 17.971-62.411 40.050-88.589 66.412-0.435 0.435-0.786 0.954-1.313 1.389-8.026 7.952-15.616 16.295-22.761 25.017l-0.456 0.573c-1.489 1.832-2.97 3.657-4.542 5.84-53.151 66.511-85.184 150.741-85.184 242.3h102.469l-163.834 245.705-163.826-245.713h102.293c0-107.614 33.691-207.472 90.689-290.13 0.695-1.214 1.138-2.519 1.916-3.573 5.848-8.551 12.482-16.33 18.765-24.178 2.443-2.878 4.542-5.856 7.069-9.085 9.253-11.169 19.292-21.811 29.415-32.286 1.046-1.038 1.924-1.909 2.794-2.878 34.301-34.385 72.969-63.182 115.127-86.406 1.138-0.618 2.092-1.13 3.405-1.825 9.303-5.208 21.513-11.253 33.991-16.804l3.188-1.266c3.237-1.397 6.283-2.794 9.344-4.107 10.91-4.619 21.987-8.467 33.164-12.299 5.275-1.832 10.574-3.611 15.887-5.329 6.077-1.934 16.091-4.547 26.214-6.877l3.636-0.704c6.726-1.58 13.177-3.329 20.071-4.542 2.794-0.702 5.42-1.573 8.207-1.84 9.596-1.748 19.109-2.619 28.545-3.748 3.489-0.618 6.886-1.214 10.291-1.573 17.109-1.664 34.126-2.703 51.15-2.703 103.95 0 205.548 31.759 292.656 92.857 27.759 19.468 34.561 57.869 15.185 85.452-19.544 28.003-57.777 34.729-85.528 15.093M1126.026 384.176c0 107.362-33.248 207.128-89.979 289.343-0.878 1.397-1.405 2.886-2.107 4.107-7.321 10.123-14.826 19.544-22.598 29.056-0.844 1.024-1.678 2.165-2.447 3.352l-0.088 0.145c-52.189 62.839-117.386 111.63-191.142 143.488-2.183 0.87-4.016 1.832-6.199 2.71-11.879 4.886-23.919 9.077-36.225 13.261-4.184 1.397-8.642 2.97-13.001 4.275-10.658 3.229-21.292 5.856-32.118 8.383-6.024 1.313-12.139 2.878-18.162 4.107-2.962 0.519-5.672 1.389-8.81 2.008-8.115 1.305-16.063 2.092-24.178 3.054-5.68 0.611-11.093 1.481-16.765 2.092-13.612 1.313-27.148 1.832-40.668 2.092-2.443 0-4.886 0.351-7.337 0.351-0.435 0-0.87-0.084-1.305-0.168-103.866-0.092-205.289-31.423-292.221-92.437-27.751-19.376-34.561-57.693-15.017-85.62 19.292-27.675 57.785-34.477 85.627-14.933 67.122 46.959 145.504 70.878 225.886 70.084 11.52-0.076 23.056-0.603 34.217-1.741 3.489-0.26 6.81-0.786 10.299-1.313 9.253-1.13 18.414-2.351 27.499-4.275 3.932-0.695 7.94-1.748 11.696-2.619 8.993-2 17.712-4.092 26.354-6.711 2.886-0.794 5.504-1.748 8.123-2.794 10.032-3.237 19.804-6.642 29.232-10.65 1.046-0.267 2.008-1.046 2.97-1.397 58.54-25.549 107.695-62.896 146.286-109.335l0.516-0.638c0.092-0.176 0.267-0.527 0.603-0.794 55.181-67.205 88.337-153.001 88.421-246.484h-102.553l164.086-245.789 163.658 245.789h-102.553z" />
<glyph unicode="&#xe677;" glyph-name="link1" horiz-adv-x="2914" d="M1327.776 22.599c-92.428 92.109-149.618 219.526-149.618 360.301 0 0.314 0 0.629 0.001 0.943v-0.049c1.687 37.030 32.119 66.413 69.413 66.413 37.244 0 67.644-29.304 69.401-66.114l0.006-0.158c-0.106-205.415 166.328-372.027 371.755-372.145l714.18 0.639c205.699 0.343 372.358 167.002 372.701 372.677 0.118 205.427-166.328 372.039-371.755 372.145l-602.774-0.556c-36.97 1.759-66.277 32.161-66.277 69.407 0 37.292 29.38 67.722 66.255 69.407l0.152 0.006 602.49 0.485c281.992 0.118 510.693-228.394 510.799-510.409v-0.414c-0.603-282.287-229.304-510.977-511.592-511.58l-714.026-0.402c-0.366-0.001-0.798-0.001-1.231-0.001-140.721 0-268.090 57.168-360.149 149.545l-0.014 0.014 0.13-0.142h0.154zM149.618 21.76c-92.428 92.114-149.618 219.536-149.618 360.315 0 0.309 0 0.617 0.001 0.926v-0.047c0.497 282.323 229.257 511.083 511.592 511.568l713.885 0.568c282.003 0.106 510.705-228.406 510.811-510.409v-0.414c-1.619-37.081-32.074-66.529-69.407-66.529-37.287 0-67.713 29.376-69.396 66.248l-0.006 0.152c0.118 205.415-166.328 372.027-371.755 372.133l-714.417-0.698c-205.628-0.39-372.24-166.991-372.618-372.63-0.106-205.403 166.328-372.015 371.743-372.122l602.703 0.485c36.965-1.764 66.268-32.163 66.268-69.406 0-1.133-0.027-2.259-0.081-3.378l0.006 0.158c-1.711-35.9-30.422-64.566-66.184-66.199l-0.151-0.006-602.313-0.485c-0.143 0-0.313 0-0.483 0-140.92 0-268.464 57.274-360.623 149.813l0.042-0.042z" />
<glyph unicode="&#xe679;" glyph-name="icon" d="M512 896c-282.552 0-512-229.453-512-512 0-282.552 229.448-512 512-512s512 229.448 512 512c0 282.547-229.448 512-512 512M512-87.040c-259.077 0-471.040 211.968-471.040 471.040s211.963 471.040 471.040 471.040 471.040-211.968 471.040-471.040-211.963-471.040-471.040-471.040M739.901 653.844h-385.777c-0.008 0-0.017 0-0.026 0-28.797 0-52.142-23.345-52.142-52.142 0-0.009 0-0.018 0-0.027v0.001-35.697h-17.848c-0.008 0-0.017 0-0.026 0-28.797 0-52.142-23.345-52.142-52.142 0-0.009 0-0.018 0-0.027v0.001-350.080c0-38.441 31.575-70.016 70.016-70.016h420.091c38.441 0 70.016 31.575 70.016 70.016v437.944c0 0.008 0 0.017 0 0.026 0 28.797-23.345 52.142-52.142 52.142-0.007 0-0.014 0-0.022 0h0.001M757.74 163.732c0-19.22-15.094-35.697-35.697-35.697h-420.086c-19.22 0-35.697 15.099-35.697 35.697v350.080c0 9.61 8.238 17.848 17.848 17.848h17.848v-350.080c0-9.61 8.233-17.843 17.843-17.843s17.848 8.233 17.848 17.843v420.096c0 9.61 8.238 17.843 17.848 17.843h385.772c9.61 0 17.853-8.233 17.853-17.843v-437.944h-1.382zM573.778 425.948h140.032c5.494 0 8.238 4.116 8.238 8.233 0 5.494-4.127 8.238-8.238 8.238h-140.032c-5.489 0-8.238-4.116-8.238-8.238 0-4.116 2.749-8.233 8.238-8.233M573.778 479.488h140.032c5.494 0 8.238 4.122 8.238 8.238 0 5.494-4.127 8.238-8.238 8.238h-140.032c-5.489 0-8.238-4.122-8.238-8.238 0-5.494 2.749-8.238 8.238-8.238M573.778 531.656h140.032c5.494 0 8.238 4.122 8.238 8.238 0 5.494-4.127 8.238-8.238 8.238h-140.032c-5.489 0-8.238-4.122-8.238-8.238s2.749-8.238 8.238-8.238M521.61 181.576h-140.032c-5.494 0-8.238-4.116-8.238-8.233 0-5.489 4.116-8.238 8.238-8.238h140.032c5.494 0 8.238 4.122 8.238 8.238s-4.122 8.233-8.238 8.233M521.61 233.743h-140.032c-5.494 0-8.238-4.122-8.238-8.233 0-5.494 4.116-8.238 8.238-8.238h140.032c5.494 0 8.238 4.122 8.238 8.238s-4.122 8.233-8.238 8.233M521.61 285.916h-140.032c-5.494 0-8.238-4.122-8.238-8.238 0-5.489 4.116-8.233 8.238-8.233h140.032c5.494 0 8.238 4.122 8.238 8.233 0 4.116-4.122 8.238-8.238 8.238M713.81 181.576h-140.032c-5.489 0-8.238-4.116-8.238-8.233 0-5.489 4.122-8.238 8.238-8.238h140.032c5.494 0 8.238 4.122 8.238 8.238s-2.744 8.233-8.238 8.233M713.81 233.743h-140.032c-5.489 0-8.238-4.122-8.238-8.233 0-5.494 4.122-8.238 8.238-8.238h140.032c5.494 0 8.238 4.122 8.238 8.238s-2.744 8.233-8.238 8.233M713.81 285.916h-140.032c-5.489 0-8.238-4.122-8.238-8.238 0-5.489 4.122-8.233 8.238-8.233h140.032c5.494 0 8.238 4.122 8.238 8.233 0 4.116-2.744 8.238-8.238 8.238M713.81 391.624h-332.232c-5.494 0-8.238-4.116-8.238-8.233 0-5.494 4.116-8.238 8.238-8.238h332.232c5.494 0 8.238 4.122 8.238 8.238s-2.744 8.233-8.238 8.233M713.81 338.084h-332.232c-5.494 0-8.238-4.122-8.238-8.238 0-5.489 4.116-8.233 8.238-8.233h332.232c5.494 0 8.238 4.116 8.238 8.233 0 5.489-2.744 8.238-8.238 8.238M389.816 425.948h122.184c9.61 0 17.848 8.233 17.848 17.843v122.184c0 9.61-8.238 17.848-17.848 17.848h-122.184c-9.61 0-17.848-8.238-17.848-17.848v-122.184c0-9.61 8.238-17.843 17.848-17.843M407.66 549.504h87.864v-87.864h-87.864v87.864z" />
<glyph unicode="&#xe67a;" glyph-name="icon1" d="M512 896c-282.547 0-512-229.453-512-512 0-282.552 229.453-512 512-512 282.552 0 512 229.448 512 512 0 282.547-229.448 512-512 512M512-87.040c-259.072 0-471.040 211.968-471.040 471.040s211.968 471.040 471.040 471.040 471.040-211.968 471.040-471.040-211.968-471.040-471.040-471.040M246.518 592.594h75.853v-113.777h-75.853v113.777zM246.518 421.924h75.853v-113.782h-75.853v113.782zM284.447 251.259h455.112v-75.853h-455.112v75.853zM398.223 592.594h75.853v-113.777h-75.853v113.777zM398.223 421.924h75.853v-113.782h-75.853v113.782zM549.924 592.594h75.848v-113.777h-75.848v113.777zM549.924 421.924h75.848v-113.782h-75.848v113.782zM701.629 592.594h75.843v-113.777h-75.843v113.777zM701.629 421.924h75.843v-113.782h-75.843v113.782z" />
<glyph unicode="&#xe900;" glyph-name="cr" horiz-adv-x="1316" d="M877.244 310.951h-789.717c-50.674 0-87.527-21.717-87.527-58.571v-36.853c0-28.956 36.853-51.332 87.527-51.332h789.717c51.332 0 73.049 14.478 73.049 51.332v51.332c0 29.614-21.717 44.093-73.049 44.093v0zM877.244 18.756h-789.717c-51.332 0-87.527-21.717-87.527-58.571v-36.853c0-28.956 36.853-51.332 87.527-51.332h789.717c51.332 0 73.049 14.478 73.049 51.332v51.332c0 28.956-21.717 44.093-73.049 44.093v0zM0 822.951v0 0zM73.049 749.902h804.195c51.332 0 73.049 28.956 73.049 73.049s-21.717 73.049-73.049 73.049h-804.195c-44.093 0-73.049-36.853-73.049-80.288 0-44.093 28.956-65.81 73.049-65.81zM1221.429 742.663l-241.522-153.337c-36.853-21.717-36.853-87.527 0-109.902l241.522-153.337c44.093-28.956 94.766 7.239 94.766 58.571v299.434c0 51.332-58.571 80.288-94.766 58.571z" />
<glyph unicode="&#xe901;" glyph-name="ren" horiz-adv-x="852" d="M668.974 608.458c2.934-1.76 6.455-3.521 9.389-5.868l9.389-6.455v-11.15c0.587-32.275-3.521-59.856-11.736-80.394-7.629-19.365-19.365-33.449-34.622-42.251-10.563-37.556-22.886-72.179-40.491-101.52-19.952-33.449-46.946-59.269-84.502-73.352-17.018-6.455-59.856-8.802-100.933-8.215-39.904 0.587-79.807 4.695-95.652 11.736-34.036 15.844-58.095 42.251-76.287 75.113-15.844 28.167-26.407 61.029-36.383 95.652-15.844 8.215-28.167 22.886-35.796 42.251-8.802 21.126-12.91 48.706-12.323 81.568v11.15l9.389 6.455c2.347 1.76 4.695 2.934 7.042 4.695-10.563 129.1-6.455 177.219 41.664 231.794 93.304 75.7 307.493 73.352 402.558 3.521 64.55-60.442 69.245-129.1 49.293-234.728v0zM472.39 234.654l1.174-29.341-17.605-28.754 24.646-160.789 100.346 215.363 152.573 5.281c78.634-74.526 129.1-249.985 116.777-364.415-283.434 0-566.868 0-850.301 0 2.347 100.346 20.539 272.284 120.885 359.72l137.903-1.174 129.1-213.015 24.060 159.028-17.605 28.754 1.174 29.341c33.449 2.347 43.425 2.347 76.873 0v0zM586.233 654.23c-60.442-11.736-150.813-22.299-222.405 17.605-27.581 15.257-67.484-16.431-100.346-12.91-9.976-19.952-17.605-42.251-22.299-65.724l-3.521-19.365-19.365 1.76c-3.521 0.587-7.629 0-11.15-1.174-1.76-0.587-3.521-1.174-5.281-2.347 0.587-21.712 3.521-39.317 8.802-52.814 4.695-11.736 11.736-19.365 20.539-22.299l11.15-3.521 2.934-11.736c9.389-35.209 20.539-68.658 35.209-96.238 14.084-25.233 31.688-45.185 56.335-56.921 10.563-4.695 43.425-7.629 78.047-8.215 36.97-0.587 73.352 1.174 85.676 5.868 26.994 9.976 46.946 29.341 62.203 55.161 16.431 27.581 28.167 62.203 38.143 100.346l2.934 11.15 10.563 3.521c8.802 2.934 15.257 10.563 19.952 22.886 5.281 13.497 8.215 30.515 8.802 51.64-1.76 0.587-2.934 1.174-4.695 1.76-3.521 1.174-7.629 1.76-11.15 1.76l-18.778-1.174-3.521 18.778c-2.934 23.473-9.389 44.011-18.778 62.203z" />
<glyph unicode="&#xe902;" glyph-name="star" horiz-adv-x="1075" d="M831.21-128c12.642 0 28.444 6.321 41.086 12.642 22.123 15.802 31.605 44.247 28.444 69.531l-50.568 281.284 205.432 195.951c18.963 18.963 25.284 47.407 15.802 72.691-6.321 25.284-28.444 44.247-53.728 47.407l-290.765 44.247-126.42 262.321c-9.481 22.123-31.605 37.926-60.049 37.926s-50.568-12.642-63.21-37.926l-129.58-262.321-287.605-50.568c-28.444-3.16-50.568-18.963-56.889-47.407-6.321-25.284 0-50.568 18.963-72.691l208.593-192.79-53.728-281.284c-6.321-25.284 6.321-50.568 28.444-69.531 9.481-9.481 28.444-12.642 41.086-12.642 9.481 0 22.123 3.16 31.605 9.481l262.321 132.741 259.16-132.741c9.481-3.16 22.123-6.321 31.605-6.321v0z" />
<glyph unicode="&#xe903;" glyph-name="title" horiz-adv-x="1047" d="M0 307.118h1046.901v-87.242h-1046.901v87.242zM1046.901 356.192h-1046.901v539.808h1046.901v-539.808zM106.871 806.577v-70.884h55.617v-284.626h92.694v284.626h55.617v70.884c-1.091 0-203.928 0-203.928 0zM328.247 806.577v-45.802h91.604v45.802h-91.604zM328.247 742.236v-292.26h91.604v292.26h-91.604zM545.261 781.495h-88.332v-45.802h-19.629v-46.892h19.629v-148.311c0-28.354 1.091-46.892 2.181-55.617 2.181-7.634 5.453-14.177 11.996-20.72s14.177-9.815 22.901-11.996c8.724-2.181 22.901-2.181 43.621-2.181h35.987v46.892c-15.267 0-22.901 1.091-25.082 3.272s-3.272 11.996-3.272 31.625v157.035h23.991v45.802h-23.991v46.892zM588.882 806.577v-356.601h91.604v356.601h-91.604zM914.948 590.654v39.259c0 28.354-3.272 50.164-9.815 65.431s-17.448 28.354-33.806 37.078-37.078 14.177-62.16 14.177c-19.629 0-38.168-4.362-53.436-11.996s-27.263-18.539-33.806-33.806c-7.634-15.267-10.905-34.897-10.905-61.069v-85.061c0-21.81 1.091-38.168 4.362-49.073s8.724-21.81 16.358-31.625c7.634-9.815 19.629-16.358 33.806-22.901s30.535-7.634 49.073-7.634c19.629 0 34.897 2.181 47.983 7.634s23.991 14.177 31.625 25.082c7.634 10.905 14.177 21.81 15.267 31.625 2.181 9.815 3.272 22.901 3.272 41.44v21.81h-83.97v-39.259c0-14.177-1.091-23.991-3.272-29.444s-6.543-7.634-14.177-7.634c-5.453 0-9.815 2.181-10.905 5.453-2.181 3.272-3.272 11.996-3.272 26.173v64.341h117.776zM824.435 639.727h-26.173v21.81c0 16.358 1.091 26.173 2.181 30.535 1.091 3.272 5.453 5.453 10.905 5.453s7.634-2.181 9.815-6.543c2.181-4.362 2.181-14.177 2.181-29.444l1.091-21.81zM523.45-128l-394.769 292.26h789.538z" />
<glyph unicode="&#xe904;" glyph-name="title-1" horiz-adv-x="1047" d="M0 551.395h1046.901v-87.242h-1046.901v87.242zM1046.901-128h-1046.901v539.808h1046.901v-539.808zM106.871 323.476v-70.884h55.617v-284.626h92.694v283.536h55.617v70.884c-1.091 1.091-203.928 1.091-203.928 1.091zM328.247 323.476v-45.802h91.604v45.802h-91.604zM328.247 259.135v-292.26h91.604v292.26h-91.604zM545.261 297.304h-88.332v-45.802h-19.629v-45.802h19.629v-148.311c0-28.354 1.091-46.892 2.181-55.617 2.181-7.634 5.453-14.177 11.996-20.72s14.177-9.815 22.901-11.996c8.724-2.181 22.901-2.181 43.621-2.181h35.987v46.892c-15.267 0-22.901 1.091-25.082 3.272s-3.272 13.086-3.272 31.625v157.035h23.991v45.802h-23.991v45.802zM588.882 323.476v-356.601h91.604v356.601h-91.604zM914.948 107.553v39.259c0 28.354-3.272 50.164-9.815 65.431s-17.448 28.354-33.806 37.078c-16.358 9.815-37.078 14.177-62.16 14.177-19.629 0-38.168-4.362-53.436-11.996s-27.263-18.539-33.806-33.806c-7.634-15.267-10.905-34.897-10.905-61.069v-85.061c0-21.81 1.091-38.168 4.362-49.073s8.724-21.81 16.358-31.625c7.634-9.815 19.629-16.358 33.806-22.901s30.535-7.634 49.073-7.634c19.629 0 34.897 2.181 47.983 7.634s23.991 14.177 31.625 25.082c7.634 10.905 14.177 21.81 15.267 31.625 2.181 9.815 3.272 22.901 3.272 41.44v21.81h-83.97v-39.259c0-14.177-1.091-23.991-3.272-29.444s-5.453-6.543-13.086-6.543c-5.453 0-9.815 2.181-10.905 5.453-2.181 3.272-3.272 11.996-3.272 26.173v63.25h116.686zM824.435 155.536h-26.173v21.81c0 16.358 1.091 26.173 2.181 30.535 1.091 3.272 5.453 5.453 10.905 5.453s7.634-2.181 9.815-6.543 2.181-14.177 2.181-29.444l1.091-21.81zM523.45 896l394.769-292.26h-789.538z" />
<glyph unicode="&#xe905;" glyph-name="check" d="M709.632-128h-395.264c-173.056 0-314.368 141.312-314.368 314.368v395.264c0 173.056 141.312 314.368 314.368 314.368h395.776c172.544 0 313.856-141.312 313.856-314.368v-395.776c0-172.544-141.312-313.856-314.368-313.856zM971.264 201.216v365.568c0 152.064-124.416 276.48-276.48 276.48h-365.568c-152.064 0-276.48-124.416-276.48-276.48v-365.568c0-152.064 124.416-276.48 276.48-276.48h365.568c152.064 0 276.48 124.416 276.48 276.48z" />
<glyph unicode="&#xe906;" glyph-name="tick" d="M443.904 159.744c-12.8-12.8-31.744-12.8-44.544 0l-221.696 219.648c-12.8 12.8-12.8 31.744 0 45.056s31.744 12.8 45.056 0l218.624-219.648c15.36-12.8 15.36-32.256 2.56-45.056zM396.8 159.744c-12.8 12.8-12.8 31.744 0 45.056l403.456 403.456c12.8 12.8 31.744 12.8 45.056 0 12.8-12.8 12.8-31.744 0-45.056l-400.896-403.456c-13.312-12.288-34.816-12.288-47.616 0zM709.632-128h-395.264c-173.056 0-314.368 141.312-314.368 314.368v395.264c0 173.056 141.312 314.368 314.368 314.368h395.776c172.544 0 313.856-141.312 313.856-314.368v-395.776c0-172.544-141.312-313.856-314.368-313.856zM971.264 201.216v365.568c0 152.064-124.416 276.48-276.48 276.48h-365.568c-152.064 0-276.48-124.416-276.48-276.48v-365.568c0-152.064 124.416-276.48 276.48-276.48h365.568c152.064 0 276.48 124.416 276.48 276.48z" />
<glyph unicode="&#xe907;" glyph-name="yuan" horiz-adv-x="1318" d="M0 690.312c0 4.439 0 7.399 0 11.838 1.48 8.879 5.919 16.277 13.318 23.676 50.312 50.312 100.624 100.624 150.936 152.416 7.399 7.399 16.277 14.798 28.116 17.757 4.439 0 7.399 0 11.838 0 1.48 0 1.48 0 2.96-1.48 14.798-2.96 25.156-11.838 28.116-26.636s0-26.636-10.358-36.994c-29.595-29.595-57.711-59.191-87.306-88.786-1.48-1.48-1.48-1.48-2.96-2.96 2.96 0 4.439 0 5.919 0 245.642 0 492.763 0 738.405 0 44.393 0 88.786-4.439 131.699-17.757 106.543-34.035 187.931-97.665 245.642-192.37 35.514-57.711 56.231-121.341 60.671-189.41 0-4.439 1.48-10.358 1.48-14.798 0-13.318 0-25.156 0-38.474 0-1.48 0-2.96 0-4.439-1.48-25.156-4.439-50.312-10.358-73.988-26.636-109.503-85.827-196.809-177.572-260.439-63.63-44.393-134.659-69.549-211.607-73.988-5.919 0-10.358-1.48-16.277-1.48-153.896 0-307.792 0-461.688 0-7.399 1.48-14.798 1.48-22.197 2.96-76.948 17.757-130.22 82.867-130.22 161.295 0 118.382 0 236.763 0 355.145 0 8.879 1.48 19.237 2.96 28.116 13.318 78.428 81.387 136.139 161.295 136.139 131.699 0 263.399 0 395.098 0 11.838 0 25.156-1.48 36.994-4.439 75.468-17.757 125.78-84.347 125.78-161.295 0-118.382 0-236.763 0-356.624 0-17.757-2.96-35.514-8.879-51.792 0-1.48 0-2.96-1.48-2.96 0 0 0 0 1.48-1.48 11.838 5.919 25.156 10.358 36.994 16.277 48.832 23.676 88.786 57.711 121.341 99.145 39.954 53.272 63.63 112.462 69.549 177.572 2.96 26.636 1.48 54.751-2.96 81.387-10.358 68.069-38.474 127.26-84.347 177.572-36.994 41.434-82.867 73.988-134.659 93.225-36.994 13.318-75.468 22.197-115.422 20.717-26.636 0-51.792 0-78.428 0-221.965 0-445.41 0-667.376 0-1.48 0-2.96 0-4.439 0 0 0 0-1.48 0-1.48 1.48-1.48 2.96-1.48 2.96-2.96 28.116-28.116 56.231-56.231 84.347-84.347 14.798-14.798 14.798-39.954-1.48-54.751-13.318-13.318-38.474-13.318-51.792 1.48-50.312 51.792-102.104 102.104-152.416 153.896-13.318 14.798-20.717 23.676-23.676 35.514zM600.786-9.618c1.48 0 2.96 0 2.96 0 11.838 0 23.676 0 35.514 0s23.676 0 35.514 0c20.717 1.48 35.514 13.318 41.434 34.035 2.96 8.879 4.439 19.237 4.439 28.116 0 36.994 0 72.509 0 109.503 0 1.48 0 2.96 0 4.439 31.075 0 62.15 0 93.225 0 0-2.96 0-5.919 0-10.358 13.318 0 25.156 0 36.994 0 0 69.549 0 137.618 0 207.168-56.231 0-113.942 0-170.173 0 7.399 16.277 13.318 31.075 19.237 45.873 1.48 2.96 2.96 4.439 5.919 4.439 60.671 0 119.861 0 180.532 0 1.48 0 2.96 0 4.439 0 0 11.838 0 23.676 0 36.994-146.497 0-291.514 0-438.012 0 0-14.798 0-28.116 0-42.913 0-69.549 1.48-139.098-1.48-208.647-1.48-22.197-4.439-45.873-7.399-68.069-5.919-39.954-23.676-75.468-44.393-109.503-1.48-1.48-1.48-2.96-2.96-4.439 8.879-11.838 19.237-23.676 28.116-35.514 5.919 10.358 11.838 19.237 17.757 29.595 20.717 35.514 35.514 73.988 41.434 113.942 5.919 36.994 7.399 73.988 8.879 110.983 0 56.231 0 113.942 0 170.173 0 1.48 0 2.96 0 4.439 54.751 0 109.503 0 164.254 0 0-1.48-1.48-2.96-1.48-4.439-4.439-13.318-10.358-28.116-14.798-41.434 0-1.48-1.48-1.48-4.439-1.48-28.116 0-54.751 0-82.867 0-1.48 0-2.96 0-4.439 0 0-69.549 0-137.618 0-207.168 11.838 0 25.156 0 36.994 0 0 2.96 0 5.919 0 8.879 31.075 0 62.15 0 94.705 0 0-1.48 0-2.96 0-4.439 0-34.035 0-68.069 0-102.104 0-2.96 0-5.919 0-7.399-1.48-14.798-10.358-22.197-25.156-22.197s-28.116 1.48-42.913 2.96c-5.919 0-11.838 1.48-17.757 1.48 1.48-13.318 4.439-28.116 5.919-42.913zM591.908 145.757c-29.595-45.873-62.15-88.786-102.104-125.78 10.358-8.879 22.197-16.277 32.555-25.156 38.474 38.474 73.988 82.867 105.064 128.74-11.838 7.399-23.676 14.798-35.514 22.197zM865.665 0.74c11.838 10.358 22.197 20.717 34.035 29.595-35.514 39.954-72.509 78.428-110.983 115.422-10.358-7.399-19.237-16.277-29.595-23.676 11.838-13.318 25.156-26.636 36.994-39.954s23.676-26.636 35.514-39.954c11.838-13.318 22.197-28.116 34.035-41.434zM587.468 200.509c0 16.277 0 32.555 0 47.353 75.468 0 150.936 0 226.405 0 0-16.277 0-32.555 0-47.353-75.468 0-150.936 0-226.405 0zM587.468 281.896c0 16.277 0 31.075 0 47.353 75.468 0 150.936 0 226.405 0 0-16.277 0-31.075 0-47.353-75.468 0-150.936 0-226.405 0z" />
<glyph unicode="&#xe908;" glyph-name="biaoji" d="M265.655 386.926h145.701l-72.558 204.215-73.143-204.215zM669.403 375.223c-15.214-4.096-26.917-11.118-36.279-19.895s-14.043-21.65-14.043-37.449c0-17.554 5.266-31.598 16.384-40.375 10.533-8.777 26.917-13.458 49.152-13.458 18.139 0 35.109 3.511 50.322 10.533s29.257 15.799 42.13 25.746v87.186c-15.799-1.17-35.109-2.341-56.174-4.096-21.65-1.755-38.619-4.681-51.493-8.192v0zM512 896c-282.624 0-512-229.376-512-512s229.376-512 512-512 512 229.376 512 512-229.376 512-512 512zM469.87 223.671l-40.96 115.858h-179.639l-40.96-115.858h-56.174l150.967 415.451h73.728l150.967-415.451h-57.929zM829.733 223.671h-52.078v33.353c-4.681-2.926-11.118-7.607-18.725-13.458s-15.799-9.947-22.821-13.458c-8.777-4.096-18.725-7.607-30.427-10.533-11.118-2.926-24.576-4.096-39.79-4.096-28.087 0-52.078 9.362-71.387 28.087s-29.257 42.13-29.257 71.387c0 23.406 5.266 42.715 15.214 57.344s24.576 26.331 43.301 34.523c18.725 8.192 41.545 14.043 68.462 16.969s55.003 5.266 85.431 7.022v8.192c0 11.703-2.341 21.65-6.437 29.842-4.096 7.607-9.947 14.043-18.139 18.139-7.607 4.096-16.384 7.022-26.917 8.777s-21.065 2.341-32.768 2.341c-13.458 0-29.257-1.755-46.226-5.266s-34.523-8.777-52.663-15.799h-2.926v53.248c9.947 2.926 25.161 5.851 44.471 9.362s38.619 5.266 57.344 5.266c22.235 0 40.96-1.755 57.344-5.266s30.427-9.947 42.13-18.725c11.703-8.777 20.48-19.895 26.917-33.353s9.362-30.427 9.362-50.322l0.585-213.577z" />
<glyph unicode="&#xe909;" glyph-name="tupian" horiz-adv-x="1149" d="M1012.924 896h-917.668c-52.058 0-94.702-45.413-94.702-101.902v-741.002c-1.108-4.431-1.108-9.415 0-13.845v-47.074c0-55.935 42.644-101.902 94.702-101.902h659.037c38.213 8.307 38.213 68.673 2.215 77.534h-661.253c-6.092 0-15.507 9.415-15.507 23.814v43.197c51.505 79.195 172.236 226.509 266.384 226.509 32.675 0 81.41-29.906 125.716-57.043 52.058-31.567 101.348-62.027 147.868-62.027 120.731 0 171.128 100.794 215.433 189.958 39.875 79.749 67.565 128.485 115.747 128.485 21.599 0 48.182-14.399 77.534-42.090v-112.978c0.554 0 1.108 0.554 1.661 0 27.691-25.475 53.72-22.153 77.534-1.108v489.571c0 55.935-42.644 101.902-94.702 101.902zM1028.431 517.192c-26.583 14.953-52.612 22.706-77.534 22.706-101.348 0-146.76-91.379-187.189-172.236-43.751-88.61-77.534-146.76-143.991-146.76-23.814 0-69.78 27.691-106.886 50.397-54.827 33.229-111.87 68.119-166.698 68.119-101.348 0-198.819-90.271-266.384-172.236v626.916c0 14.399 9.415 23.814 15.507 23.814h917.668c6.646 0 15.507-9.415 15.507-23.814v-276.906zM281.337 727.087c-81.964 0-148.422-65.35-148.422-145.653s66.458-145.653 148.422-145.653 148.422 65.35 148.422 145.653c-0.554 80.303-67.011 145.653-148.422 145.653zM281.337 511.1c-39.321 0-70.888 31.014-71.442 70.334 0 38.767 32.121 70.334 71.442 70.334s71.442-31.567 71.442-70.334-32.675-70.334-71.442-70.334zM1136.424 125.646l-151.191 151.191c-16.061 16.061-42.090 16.061-58.704 0-1.108-1.108-1.661-2.215-2.769-2.769l-148.422-148.976c-16.061-16.061-16.061-42.090 0-58.704s42.644-16.614 58.704 0l82.518 82.518v-229.832c0-26.029 18.83-47.074 41.536-47.074s41.536 21.045 41.536 47.074v225.956l78.088-78.088c16.061-16.061 42.090-16.061 58.704 0 16.061 16.614 16.614 42.644 0 58.704v0z" />
<glyph unicode="&#xe90a;" glyph-name="yuanwen" horiz-adv-x="1182" d="M1023.37 856.954c0 22.042-16.374 39.046-37.156 39.046h-793.506c-20.153 0-37.156-17.633-37.156-39.046v-787.838c0-22.042 17.633-39.675 39.675-39.675s39.046 17.633 39.046 39.675v748.162h710.376v-748.792c0-22.042 17.633-39.675 39.046-39.675s39.046 17.633 39.046 39.675v787.208c0.63 0 0.63 0.63 0.63 1.26v0zM1142.396 188.772c-22.042 0-39.046-17.633-39.046-38.416v-200.266h-1024.63v196.487c0 22.042-17.633 39.675-39.046 39.675s-39.675-17.633-39.675-39.675v-231.124c0-1.26 0-3.149 0-4.408 0-22.042 17.633-39.046 39.046-39.046h1103.351c22.042 0 39.046 17.633 39.046 38.416v239.941c0.63 21.412-17.004 38.416-39.046 38.416v0zM827.513 738.558h-472.954c-22.042 0-39.675-17.633-39.675-39.046s17.633-39.675 39.675-39.675h473.584c22.042 0 39.675 17.633 39.675 39.675s-18.263 39.046-40.305 39.046zM668.812 581.117h-314.253c-22.042 0-39.675-17.633-39.675-39.046s17.633-39.046 39.675-39.046h314.253c22.042 0 39.675 17.633 39.675 39.046s-17.633 39.046-39.675 39.046zM761.387 269.383l-142.957 143.587c-15.114 15.114-40.305 15.114-55.419 0-0.63-0.63-1.889-1.889-2.519-2.519l-141.068-141.697c-15.114-15.114-15.114-40.305 0-55.419s40.305-15.744 55.419 0l78.091 78.091v-217.899c0-24.561 17.633-44.713 39.046-44.713 22.042 0 39.046 20.153 39.046 44.713v214.121l73.683-73.683c15.114-15.114 40.305-15.114 55.419 0 16.374 15.114 17.004 40.305 1.26 55.419v0z" />
<glyph unicode="&#xe90b;" glyph-name="uniE90B" horiz-adv-x="1050" d="M370.428 482.994c-19.16-10.644-40.449-21.289-59.609-29.805v114.96h57.48v38.32h-57.48v104.316h-40.449v-104.316h-68.125v-38.32h68.125v-131.992c-25.547-10.644-51.094-17.031-78.769-23.418l10.644-40.449c23.418 6.387 44.707 14.902 68.125 23.418v-136.249c0-14.902-8.516-23.418-23.418-23.418-12.773 0-27.676 2.129-42.578 2.129l8.516-38.32h48.965c31.933 0 48.965 17.031 48.965 51.094v163.925c21.289 8.516 40.449 19.16 59.609 29.805v38.32zM568.416 306.295c6.387 8.516 14.902 19.16 23.418 25.547 0 0 0 0 0 0-6.387 10.644-12.773 21.289-19.16 31.933h57.48c23.418 17.031 51.094 29.805 78.769 38.32h-27.676v153.281h-100.058c17.031 23.418 34.062 51.094 51.094 85.156v29.805h-121.347c6.387 12.773 12.773 27.676 17.031 40.449l-40.449 4.258c-21.289-53.222-59.609-100.058-114.96-136.249l23.418-31.933c38.32 25.547 68.125 55.351 91.543 87.285h97.929c-14.902-29.805-31.933-55.351-48.965-78.769h-129.863v-153.281h-40.449v-38.32h131.992c-23.418-57.48-72.383-102.187-149.023-138.378l27.676-34.062c83.027 44.707 138.378 100.058 161.796 163.925 10.644-17.031 19.16-34.062 29.805-48.965zM562.029 519.185h83.027v-119.218h-91.543c4.258 31.933 8.516 72.383 8.516 119.218zM513.064 399.967h-65.996v119.218h78.769c-2.129-44.707-6.387-85.156-12.773-119.218zM642.927 896h-383.202c-142.636 0-259.726-117.089-259.726-259.726v-381.073c0-142.636 117.089-259.726 259.726-259.726h255.468c-17.031 31.933-25.547 61.738-29.805 95.8h-217.148c-95.8 0-172.441 78.769-172.441 172.441v364.042c0 95.8 78.769 172.441 172.441 172.441h368.299c95.8 0 172.441-78.769 172.441-172.441v-191.601c48.965-2.129 83.027-17.031 95.8-21.289v221.405c-2.129 142.636-119.218 259.726-261.854 259.726zM789.821-128c-142.636 0-259.726 117.089-259.726 259.726s117.089 259.726 259.726 259.726 259.726-117.089 259.726-259.726-117.089-259.726-259.726-259.726zM789.821 308.424c-97.929 0-176.699-78.769-176.699-176.699s78.769-176.699 176.699-176.699 176.699 78.769 176.699 176.699-78.769 176.699-176.699 176.699zM598.22 12.507l308.69 308.69 72.383-72.383-306.561-308.69-74.511 72.383z" />
<glyph unicode="&#xe90c;" glyph-name="zhuanhuan" d="M453.12 49.664c0 0 0 0 0 0-125.44 18.944-235.008 95.232-294.4 210.432-5.12 12.8-17.408 21.504-31.744 21.504h-3.584c-15.36 0-27.648-10.24-32.256-24.064-1.024-2.56-1.024-5.12-1.536-7.68 0-1.024-0.512-1.536-0.512-2.56v-1.536c0-1.536 0-3.072 0-5.12v-163.84c0-18.944 15.36-33.792 34.304-34.304h3.584c18.944 0 33.792 15.36 34.304 34.304v52.736c71.68-80.896 169.472-133.12 276.992-150.528 4.608-2.048 10.752-2.048 16.384-2.048 0 0 0.512 0 0.512 0s0 0 0 0v0c19.968 0.512 35.84 15.36 35.84 35.84-0.512 20.48-17.408 36.864-37.888 36.864zM908.288 705.024h-3.584c-18.944 0-33.792-15.36-34.304-34.304v-53.248c-69.12 79.872-163.328 132.608-267.264 152.576-4.096 2.048-8.704 3.072-13.312 3.072-1.024 0-2.048 0.512-3.072 0.512v-0.512c-19.968 0-36.352-16.384-36.352-36.864 0-19.968 16.384-36.864 36.352-36.864v-0.512c122.368-22.528 227.84-99.328 284.672-213.504 3.072-6.144 8.192-10.752 13.824-14.336s11.776-6.656 18.944-6.656h3.584c18.944 0 33.792 15.36 34.304 34.304v172.032c0.512 18.944-14.848 34.304-33.792 34.304v0zM172.032 723.968v-216.064c0-8.704 7.168-15.872 15.872-15.872h216.064c8.704 0 15.872 7.168 15.872 15.872v216.064c0 8.704-7.168 15.872-15.872 15.872h-216.064c-8.704 0-15.872-7.168-15.872-15.872zM167.936 812.032h256c37.376 0 68.096-30.208 68.096-68.096v-256c0-37.376-30.72-68.096-68.096-68.096h-256c-37.376 0-68.096 30.208-68.096 68.096v256c0 37.376 30.72 68.096 68.096 68.096zM620.032 260.096v-216.064c0-8.704 7.168-15.872 15.872-15.872h216.064c8.704 0 15.872 7.168 15.872 15.872v216.064c0 8.704-7.168 15.872-15.872 15.872h-216.064c-8.704 0-15.872-7.168-15.872-15.872zM615.936 348.16h256c37.376 0 68.096-30.208 68.096-68.096v-256c0-37.376-30.208-68.096-68.096-68.096h-256c-37.376 0-68.096 30.208-68.096 68.096v256c0 37.376 30.72 68.096 68.096 68.096z" />
<glyph unicode="&#xe9cb;" glyph-name="link" d="M440.236 260.234c-13.31 0-26.616 5.076-36.77 15.23-95.134 95.136-95.134 249.934 0 345.070l192 192c46.088 46.086 107.36 71.466 172.534 71.466s126.448-25.38 172.536-71.464c95.132-95.136 95.132-249.934 0-345.070l-87.766-87.766c-20.308-20.308-53.23-20.308-73.54 0-20.306 20.306-20.306 53.232 0 73.54l87.766 87.766c54.584 54.586 54.584 143.404 0 197.99-26.442 26.442-61.6 41.004-98.996 41.004s-72.552-14.562-98.996-41.006l-192-191.998c-54.586-54.586-54.586-143.406 0-197.992 20.308-20.306 20.306-53.232 0-73.54-10.15-10.152-23.462-15.23-36.768-15.23zM256-116c-65.176 0-126.45 25.38-172.534 71.464-95.134 95.136-95.134 249.934 0 345.070l87.764 87.764c20.308 20.306 53.234 20.306 73.54 0 20.308-20.306 20.308-53.232 0-73.54l-87.764-87.764c-54.586-54.586-54.586-143.406 0-197.992 26.44-26.44 61.598-41.002 98.994-41.002s72.552 14.562 98.998 41.006l192 191.998c54.584 54.586 54.584 143.406 0 197.992-20.308 20.308-20.306 53.232 0 73.54 20.306 20.306 53.232 20.306 73.54-0.002 95.132-95.134 95.132-249.932 0.002-345.068l-192.002-192c-46.090-46.088-107.364-71.466-172.538-71.466z" />
</font>
</defs>
</svg>
