<?xml version="1.0" standalone="no"?>
<!DOCTYPE svg PUBLIC "-//W3C//DTD SVG 1.1//EN" "http://www.w3.org/Graphics/SVG/1.1/DTD/svg11.dtd" >
<!--
2013-9-30: Created.
-->
<svg>
<metadata>
Created by iconfont
</metadata>
<defs>

<font id="iconfont" horiz-adv-x="1024" >
  <font-face
    font-family="iconfont"
    font-weight="500"
    font-stretch="normal"
    units-per-em="1024"
    ascent="896"
    descent="-128"
  />
    <missing-glyph />
    
    <glyph glyph-name="x" unicode="x" horiz-adv-x="1001"
d="M281 543q-27 -1 -53 -1h-83q-18 0 -36.5 -6t-32.5 -18.5t-23 -32t-9 -45.5v-76h912v41q0 16 -0.5 30t-0.5 18q0 13 -5 29t-17 29.5t-31.5 22.5t-49.5 9h-133v-97h-438v97zM955 310v-52q0 -23 0.5 -52t0.5 -58t-10.5 -47.5t-26 -30t-33 -16t-31.5 -4.5q-14 -1 -29.5 -0.5
t-29.5 0.5h-32l-45 128h-439l-44 -128h-29h-34q-20 0 -45 1q-25 0 -41 9.5t-25.5 23t-13.5 29.5t-4 30v167h911zM163 247q-12 0 -21 -8.5t-9 -21.5t9 -21.5t21 -8.5q13 0 22 8.5t9 21.5t-9 21.5t-22 8.5zM316 123q-8 -26 -14 -48q-5 -19 -10.5 -37t-7.5 -25t-3 -15t1 -14.5
t9.5 -10.5t21.5 -4h37h67h81h80h64h36q23 0 34 12t2 38q-5 13 -9.5 30.5t-9.5 34.5q-5 19 -11 39h-368zM336 498v228q0 11 2.5 23t10 21.5t20.5 15.5t34 6h188q31 0 51.5 -14.5t20.5 -52.5v-227h-327z" />
    

    
    <glyph glyph-name="close" unicode="&#58914;" d="M578.479324 383.998322l431.770494 431.770493a46.953282 46.953282 0 0 1 0 66.448265 46.945097 46.945097 0 0 1-66.440081 0L512.03106 450.454771 80.260567 882.176158a46.953282 46.953282 0 0 1-66.448265 0 46.953282 46.953282 0 0 1 0-66.448264l431.770494-431.721387-431.770494-431.770494a46.953282 46.953282 0 0 1 0-66.448264 46.953282 46.953282 0 0 1 66.448265 0l431.770493 431.770493 431.778677-431.770493a46.945097 46.945097 0 0 1 66.440081 0 46.953282 46.953282 0 0 1 0 66.448264L578.479324 383.998322z"  horiz-adv-x="1024" />

    
    <glyph glyph-name="user" unicode="&#58960;" d="M512 896c-162.909091 0-294.787879-131.878788-294.787879-294.787879 0-100.848485 46.545455-186.181818 124.121212-240.484848-201.69697-62.060606-341.333333-256-341.333333-465.454546 0-7.757576 7.757576-23.272727 23.272727-23.272727s23.272727 7.757576 23.272728 23.272727c0 170.666667 100.848485 325.818182 248.242424 403.39394 7.757576 0 7.757576 7.757576 15.515151 7.757575s7.757576 7.757576 15.515152 7.757576 7.757576 0 15.515151 7.757576c7.757576 0 15.515152 7.757576 23.272728 7.757576 7.757576 0 23.272727 7.757576 31.030303 7.757575 38.787879-15.515152 77.575758-23.272727 124.121212-23.272727 77.575758 0 155.151515 31.030303 209.454545 85.333334 31.030303 23.272727 46.545455 62.060606 62.060606 93.090909 15.515152 38.787879 23.272727 77.575758 23.272728 116.363636-7.757576 155.151515-139.636364 287.030303-302.545455 287.030303z m240.484848-403.393939c-15.515152-31.030303-31.030303-62.060606-54.30303-85.333334-46.545455-46.545455-116.363636-77.575758-186.181818-77.575757-147.393939 0-263.757576 116.363636-263.757576 263.757575s116.363636 263.757576 263.757576 263.757576 263.757576-116.363636 263.757576-263.757576c0-31.030303-7.757576-69.818182-23.272728-100.848484z m186.181819-325.818182c-15.515152 15.515152-23.272727 31.030303-38.787879 46.545454-31.030303 31.030303-62.060606 62.060606-62.060606 108.606061 0 7.757576-7.757576 23.272727-23.272727 23.272727-7.757576 0-23.272727-7.757576-23.272728-23.272727 0-62.060606 38.787879-100.848485 69.818182-139.636364 15.515152-15.515152 23.272727-31.030303 38.787879-38.787878 46.545455-69.818182 77.575758-162.909091 77.575757-248.242425 0-7.757576 7.757576-23.272727 23.272728-23.272727s23.272727 7.757576 23.272727 23.272727c0 93.090909-31.030303 186.181818-85.333333 271.515152z"  horiz-adv-x="1024" />

    
    <glyph glyph-name="exit" unicode="&#58963;" d="M737.4 737.3c-12.9 6.7-29 2-35.9-10.4-7-12.4-2.1-27.8 10.8-34.5 138.4-71.2 224.3-208.9 224.3-359.3 0-224.7-190.5-407.6-424.6-407.6S87.4 108.3 87.4 333.1c0 150.9 86.4 288.7 225.4 359.8 12.9 6.6 17.8 22 10.9 34.5-6.9 12.4-22.9 17.1-35.9 10.5-156.3-80-253.5-235.1-253.5-404.8 0-252.8 214.2-458.5 477.6-458.5 263.3 0 477.6 205.7 477.6 458.5 0.1 169.2-96.5 324.1-252.1 404.2zM512 307.6c14.7 0 26.6 11.4 26.6 25.5V868c0 14.1-11.9 25.5-26.6 25.5-14.7 0-26.6-11.4-26.6-25.5v-534.9c0-14.1 11.9-25.5 26.6-25.5z"  horiz-adv-x="1024" />

    
    <glyph glyph-name="pwd" unicode="&#58964;" d="M735.399025-38.736066v60.374021H542.131406v76.057116h193.267619V157.951175H542.131406V415.130355c118.861354 14.857669 211.191156 116.620912 211.191156 239.491478 0 133.129433-108.248733 241.378167-241.378166 241.378167C378.93288 895.882082 270.566229 787.633349 270.566229 654.503915c0-122.870567 92.329802-224.515891 211.191156-239.491478v-543.012437h60.374021v89.146016l193.267619 0.117918z m-404.458775 693.239981c0 99.758637 81.245509 181.004146 181.004146 181.004146s181.004146-81.245509 181.004145-181.004146-81.245509-181.004146-181.004145-181.004145-181.004146 81.245509-181.004146 181.004145z"  horiz-adv-x="1024" />

    
    <glyph glyph-name="sure" unicode="&#58965;" d="M1013.625 744c-13.8 13.8-36.2 13.8-50 0L353.225 99.6 60.625 392.3c-13.9 13.9-36.4 13.9-50.2 0-13.9-13.9-13.9-36.3 0-50.2L328.525 24c13-13 33.7-13.8 47.6-2.4 1.4 1 2.7 2.2 4 3.4l633.5 669c13.9 13.8 13.9 36.2 0 50z"  horiz-adv-x="1024" />

    
    <glyph glyph-name="chiping" unicode="&#59288;" d="M896 320H128c-35.3 0-64 28.7-64 64s28.7 64 64 64h768c35.3 0 64-28.7 64-64s-28.7-64-64-64z"  horiz-adv-x="1024" />

    
    <glyph glyph-name="up" unicode="&#58966;" d="M15.934543-111.153667a53.804738 53.804738 0 0 1 75.876821 0l877.161884 878.233846 876.619445-878.233846a54.024297 54.024297 0 1 1 76.406345 76.41926L1007.17642 880.088211a53.817653 53.817653 0 0 1-76.406344 0L15.934543-34.734407a53.778908 53.778908 0 0 1 0-76.41926"  horiz-adv-x="1940" />

    
    <glyph glyph-name="sign" unicode="&#58967;" d="M1154.474375 759.713879h-303.997472a19.754543 19.754543 0 0 0 0 39.502344h303.997472a19.754543 19.754543 0 0 0 0-39.502344m-639.123519 0H19.754543a19.754543 19.754543 0 0 0 0 39.502344h495.596313a19.754543 19.754543 0 0 0 0-39.502344m639.123519-405.082749h-94.619542a19.754543 19.754543 0 0 0 0 39.502344h94.619542a19.754543 19.754543 0 0 0 0-39.502344m-434.35723 0H442.575928a19.754543 19.754543 0 0 0 0 39.502344h277.541217a19.754543 19.754543 0 0 0 0-39.502344m-324.945378 0h-59.250145a19.754543 19.754543 0 0 0 0 39.502344h59.250145a19.754543 19.754543 0 0 0 0-39.502344m-120.482486 0h-65.176508a19.754543 19.754543 0 0 0 0 39.502344h65.176508a19.754543 19.754543 0 0 0 0-39.502344m-114.556123 0H19.754543a19.754543 19.754543 0 0 0 0 39.502344h140.378615a19.754543 19.754543 0 0 0 0-39.502344m994.341217-385.833869H528.882381a19.754543 19.754543 0 0 0 0 39.502344h625.598736a19.754543 19.754543 0 1 0-0.006742-39.502344m-963.725047 0H19.754543a19.754543 19.754543 0 0 0 0 39.502344h170.994785a19.754543 19.754543 0 0 0 0-39.502344M803.713247 662.936845H558.797366c-32.672531 0-59.256887 26.577614-59.256887 59.256887V836.736371c0 32.686015 26.591098 59.263629 59.256887 59.263629h244.915881c32.679273 0 59.263629-26.577614 59.263629-59.256887v-114.549381c0-32.679273-26.584356-59.256887-59.263629-59.256887M558.797366 856.497656a19.77477 19.77477 0 0 1-19.747801-19.754543v-114.549381a19.77477 19.77477 0 0 1 19.747801-19.754543h244.915881a19.781512 19.781512 0 0 1 19.761286 19.754543V836.736371a19.77477 19.77477 0 0 1-19.761286 19.754543H558.797366z m451.772242-598.643561h-244.909139c-32.679273 0-59.256887 26.577614-59.256887 59.256887v114.549381c0 32.679273 26.577614 59.256887 59.256887 59.256887h244.909139c32.679273 0 59.256887-26.577614 59.256887-59.256887v-114.549381c0-32.679273-26.584356-59.256887-59.256887-59.256887m-244.909139 193.560812a19.77477 19.77477 0 0 1-19.754543-19.754544v-114.549381a19.768027 19.768027 0 0 1 19.754543-19.754543h244.909139a19.77477 19.77477 0 0 1 19.754543 19.754543v114.549381a19.77477 19.77477 0 0 1-19.754543 19.754544h-244.909139z m-286.73753-579.408165H234.007058c-32.672531 0-59.256887 26.577614-59.256887 59.256887V45.81301c0 32.679273 26.584356 59.256887 59.256887 59.256887h244.915881c32.672531 0 59.256887-26.577614 59.256887-59.256887v-114.549381c-0.006742-32.679273-26.591098-59.256887-59.256887-59.256887m-244.915881 193.567553a19.77477 19.77477 0 0 1-19.754543-19.761285v-114.549381a19.781512 19.781512 0 0 1 19.754543-19.761285h244.915881a19.77477 19.77477 0 0 1 19.747801 19.761285V45.81301a19.77477 19.77477 0 0 1-19.747801 19.761285H234.007058z"  horiz-adv-x="1174" />

    
    <glyph glyph-name="time" unicode="&#58968;" d="M512.002942 895.994116C229.227826 895.994116 0 666.766291 0 383.997058s229.233709-511.997058 512.002942-511.997058c282.775116 0 512.002942 229.227826 512.002942 511.997058S794.772174 895.994116 512.002942 895.994116m0-979.478261c-258.181371 0-467.481203 209.305715-467.481203 467.481203 0 258.181371 209.299832 467.475319 467.481203 467.475319 258.181371 0 467.475319-209.293948 467.475319-467.475319 0-258.169604-209.299832-467.481203-467.475319-467.481203m333.910101 489.745015h-247.684901a89.196454 89.196454 0 0 1-63.973156 63.979039V717.90716a22.263811 22.263811 0 1 1-44.515856 0v-247.667251c-38.408605-9.890451-66.785551-44.751202-66.78555-86.242851 0-49.175723 39.867755-89.037595 89.043478-89.037594 41.491649 0 76.358283 28.376946 86.236967 66.78555h247.679018a22.263811 22.263811 0 0 1 0 44.515856M512.002942 339.475319a44.521739 44.521739 0 1 0 0 89.043478 44.521739 44.521739 0 0 0 0-89.043478"  horiz-adv-x="1024" />

    
    <glyph glyph-name="down" unicode="&#58969;" d="M1923.800828 880.150288a53.857994 53.857994 0 0 1-75.951924 0l-878.030098-879.103121-877.487122 879.103121a54.07777 54.07777 0 1 1-76.481972-76.4949l915.728108-915.728108a53.870922 53.870922 0 0 1 76.481972 0l915.741036 915.728108a53.832138 53.832138 0 0 1 0 76.4949"  horiz-adv-x="1939" />

    
    <glyph glyph-name="data" unicode="&#58970;" d="M512-128C229.248-128 0 101.24288 0 384 0 666.79296 229.248 896 512 896s512-229.20704 512-512c0-282.75712-229.248-512-512-512m0 938.66496c-235.648 0-426.66496-191.02208-426.66496-426.66496 0-235.648 191.01696-426.66496 426.66496-426.66496s426.66496 191.02208 426.66496 426.66496S747.648 810.66496 512 810.66496m256-639.99488a42.65472 42.65472 0 0 0-42.66496 42.66496V384a42.66496 42.66496 0 0 0 85.32992 0v-170.66496a42.65472 42.65472 0 0 0-42.66496-42.66496m-170.66496 0a42.65984 42.65984 0 0 0-42.67008 42.66496V512A42.67008 42.67008 0 0 0 640 512v-298.66496a42.65984 42.65984 0 0 0-42.66496-42.66496m-170.67008 0A42.65984 42.65984 0 0 0 384 213.33504v384a42.67008 42.67008 0 0 0 85.33504-0.00512v-384a42.65984 42.65984 0 0 0-42.67008-42.65984m-170.66496 0a42.65472 42.65472 0 0 0-42.66496 42.66496V384c0 23.56224 19.0976 42.66496 42.66496 42.66496s42.66496-19.10272 42.66496-42.66496v-170.66496A42.65472 42.65472 0 0 0 256 170.67008"  horiz-adv-x="1024" />

    
    <glyph glyph-name="overview" unicode="&#58971;" d="M325.49922 12.502853a46.487376 46.487376 0 0 0-46.502833 46.502832 46.487376 46.487376 0 0 0 46.502833 46.497681H511.500247a46.487376 46.487376 0 0 0 46.492528-46.497681 46.487376 46.487376 0 0 0-46.492528-46.502832H325.49922z m69.496644 604.495607a46.229771 46.229771 0 0 0-46.245228 46.25038v0.510058a46.229771 46.229771 0 0 0 46.245228 46.245228h233.008765a46.240076 46.240076 0 0 0 46.25038-46.245228v-0.510058a46.240076 46.240076 0 0 0-46.25038-46.25038H394.995864z m372.254506-139.240588v-0.510058a46.234924 46.234924 0 0 0-46.245228-46.245228H301.995351a46.229771 46.229771 0 0 0-46.245228 46.245228v0.510058a46.229771 46.229771 0 0 0 46.245228 46.245227h419.014943a46.229771 46.229771 0 0 0 46.240076-46.245227m259.933626-157.236866l-55.127444-130.662347c-7.604496-18.042646-32.968272-24.580657-56.6164-14.575284-23.668736 9.974461-36.688087 32.690059-29.05783 50.732705l27.620395 65.493464H123.784296l100.182537-325.49922h427.031607c25.688358 0 46.497681-20.809322 46.497681-46.49768s-20.809322-46.497681-46.497681-46.497681H201.416102a38.444952 38.444952 0 0 0-18.738179 0.324582c-24.111817 1.746561-43.17973 21.623353-43.179729 46.178251 0 1.231351 0.278213 2.390573 0.376103 3.601316l-115.133924 374.042283C10.092959 304.966823 0 320.242793 0 338.002073a46.492528 46.492528 0 0 0 46.497681 46.502833c7.048069 2.158729 14.322831 1.906276 21.391509 0h56.801875A37.584552 37.584552 0 0 0 116.25193 385.942341c-24.554897 7.511758-36.62111 38.898337-26.971231 70.078831L209.669763 844.942713c-0.118498 1.442587-0.422472 2.838806-0.422472 4.302002v0.510057A46.229771 46.229771 0 0 0 255.492518 896h512.010305a46.234924 46.234924 0 0 0 46.250379-46.245228v-0.510057c0-3.395232-0.41732-6.697727-1.123157-9.881724l114.644475-382.295943c9.30984-31.015627-2.318444-62.21673-25.966571-69.68212-23.648128-7.465389-50.35145 11.623132-59.630378 42.618151L729.815229 803.004639h-435.815933L178.164686 428.818097c-8.207291-26.507542-29.433933-44.153476-50.706944-44.313191h849.039918a46.497681 46.497681 0 0 0 42.922125-28.619902c9.108908-10.742123 12.57627-23.993318 7.764211-35.363998m-143.692001-168.514807c77.049619 0 139.498194-62.453727 139.498194-139.503346s-62.448575-139.493042-139.498194-139.493042c-77.044467 0-139.493042 62.443423-139.493042 139.493042s62.448575 139.503346 139.493042 139.503346m0-186.001027a46.487376 46.487376 0 0 1 46.497681 46.492529 46.487376 46.487376 0 0 1-46.497681 46.502832 46.487376 46.487376 0 0 1-46.492528-46.502832 46.482224 46.482224 0 0 1 46.492528-46.492529"  horiz-adv-x="1029" />

    
    <glyph glyph-name="material" unicode="&#58972;" d="M1070.545455-128h-930.909091c-74.472727 0-139.636364 65.163636-139.636364 139.636364v744.727272C0 830.836364 65.163636 896 139.636364 896h930.909091c74.472727 0 139.636364-65.163636 139.636363-139.636364v-744.727272c0-74.472727-65.163636-139.636364-139.636363-139.636364m-930.909091 930.909091c-27.927273 0-46.545455-18.618182-46.545455-46.545455v-744.727272c0-27.927273 18.618182-46.545455 46.545455-46.545455h930.909091c27.927273 0 46.545455 18.618182 46.545454 46.545455v744.727272c0 27.927273-18.618182 46.545455-46.545454 46.545455h-930.909091zM744.727273 532.945455c0-51.408524 41.682385-93.090909 93.090909-93.09091s93.090909 41.682385 93.090909 93.09091c0 51.415971-41.682385 93.090909-93.090909 93.090909S744.727273 584.361425 744.727273 532.945455m232.727272-390.981819C893.672727 207.127273 856.436364 188.509091 800.581818 160.581818c-37.236364-18.618182-93.090909-37.236364-167.563636-27.927273-93.090909 18.618182-130.327273 83.781818-158.254546 139.636364-18.618182 37.236364-37.236364 74.472727-74.472727 93.090909C307.2 411.927273 223.418182 356.072727 223.418182 356.072727c-27.927273-18.618182-65.163636-9.309091-74.472727 9.309091s0 55.854545 18.618181 65.163637c9.309091 0 130.327273 83.781818 269.963637 18.618181C502.690909 411.927273 530.618182 365.381818 558.545455 318.836364S605.090909 235.054545 660.945455 225.745455c37.236364-9.309091 65.163636 0 102.4 18.618181 65.163636 27.927273 139.636364 65.163636 269.963636-37.236363 27.927273-18.618182 27.927273-55.854545 18.618182-65.163637-18.618182-9.309091-37.236364-27.927273-74.472728 0"  horiz-adv-x="1210" />

    
    <glyph glyph-name="map" unicode="&#58974;" d="M1234.429036 802.347964l-60.801188-27.426623c-2.768225-1.246948-6.097576-0.82922-8.441839 0.97262l-61.081752 47.365323c-0.274329 0.280563-0.679587 0.554892-0.966385 0.82922L1040.260515 889.877485a8.541594 8.541594 0 0 1-5.26212 2.493896l-40.862489 3.597445c-1.80184 0.143399-3.740844-0.274329-5.255886-1.384112l-34.633983-22.713159a8.666289 8.666289 0 0 1-3.466516-4.570065l-23.960107-81.431945c-0.692056-2.493896-2.487661-4.4329-4.844394-5.40552l-27.414153-10.941969c-3.192187-1.246948-5.268356-4.295736-5.268356-7.756017v-28.112445c0-3.884243 2.76199-7.344524 6.509069-8.173744l56.087725-12.051753c7.201125-1.521277 9.002965-11.079134 2.768225-15.094307l-54.566449-35.319804c-0.280563-0.137164-0.554892-0.411493-0.835455-0.548658L781.126 564.000073c-1.377878-1.246948-3.179718-1.80184-4.987793-1.939004l-52.758373-1.939004c-1.116019 0-2.076169-0.280563-3.055023-0.692057l-51.237097-22.713159c-2.219568-0.97262-4.850628-0.97262-6.933031 0.137164l-68.133243 32.963073a8.466777 8.466777 0 0 1-2.637295 0.82922l-89.325126 10.667641a8.273501 8.273501 0 0 0-6.652468 5.118722l-12.600411 30.886904a7.899416 7.899416 0 0 1-4.158571 4.289501l-77.142444 37.121645c-2.63106 1.246948-4.4329 3.740844-4.707229 6.646233l-1.521276 16.621818v0.97262l0.966385 35.313569c0 1.658441-0.417728 3.179718-1.246949 4.570065l-32.825908 52.49028c-2.350497 3.740844-7.338289 4.987792-11.216298 2.768224l-53.462899-31.709889a383.187146 383.187146 0 0 0-1.658441-1.253183l-11.908354-11.908354a8.703698 8.703698 0 0 0-7.070196-2.356732l-27.139825 3.740844c-3.60368 0.554892-7.201125-1.521277-8.728636-4.850628l-12.874739-28.804501a8.192449 8.192449 0 0 0-7.762252-4.844393l-35.039241 0.82922a8.354552 8.354552 0 0 1-8.16751-5.817012l-19.670606-64.124306a8.130101 8.130101 0 0 0-6.23474-5.679848L57.889877 601.670375c-0.417728-0.137164-0.82922-0.137164-1.240713-0.417728l-51.249566-19.115714a8.317144 8.317144 0 0 1-5.262121-9.271059l3.878008-21.472446c0.137164-0.554892 0.280563-1.109784 0.417728-1.521277l33.929457-86.145408c0-0.137164 0.137164-0.280563 0.137164-0.417728 1.939004-4.152337 31.57896-68.139478 31.161233-74.511382-0.411493-5.40552-15.094307-43.212986-20.219263-55.950561-1.103549-2.637295-0.692056-5.679849 0.972619-7.899416l13.292467-18.280259c0.417728-0.561127 0.835455-1.109784 1.390347-1.527511l111.626792-93.072205c0.554892-0.554892 1.246948-0.82922 1.939005-1.240713l172.290816-76.319458c1.664676-0.685821 3.460281-0.82922 5.124957-0.548657l103.459282 22.575995c1.939004 0.411493 4.015173 0.13093 5.817013-0.835455l40.301362-22.158267c3.460281-1.945239 5.124957-5.954177 3.878009-9.707491l-24.515-79.62387c-0.966385-3.185952 0-6.646233 2.631061-8.722402l88.776468-75.209674c2.356732-1.939004 5.542684-2.487661 8.448074-1.390347l109.001966 43.35015a8.136336 8.136336 0 0 0 7.33829-0.685821l71.051102-43.35015c0.280563-0.137164 0.417728-0.280563 0.692056-0.411493l31.853289-23.822943c0.692056-0.554892 1.521277-0.966385 2.356731-1.246948l13.984523-4.56383c4.987792-1.664676 10.256148 1.664676 10.804805 6.920562l1.515042 14.545649a8.042815 8.042815 0 0 0 4.295736 6.36567l178.114064 98.328091c1.377878 0.835455 2.624826 1.945239 3.310648 3.466516l63.438483 122.425363c0.685821 1.253183 0.966385 2.64353 0.966385 4.027642l-2.911624 97.785668a7.481688 7.481688 0 0 1-1.939004 4.975323l-37.670302 45.575953-27.00266 34.21002a8.335848 8.335848 0 0 0 0.130929 10.387078l41.423616 50.407876c0.822986 0.97262 1.795605 1.658441 2.899154 2.213333 6.926797 3.323117 6.097576 13.435866-1.384113 15.512034l-18.972315 5.262121a10.468129 10.468129 0 0 1-2.213332 0.280563h-50.825604a8.229857 8.229857 0 0 0-6.639999 3.323117l-12.469481 17.170475a8.435604 8.435604 0 0 0 1.527512 11.496861l61.480775 48.200779c5.548919 4.426666 13.710194 0.137164 13.435866-6.926797l-0.554892-10.94197a8.292205 8.292205 0 0 1 11.64026-8.030345l26.030041 11.627791c0.835455 0.417728 1.521277 0.835455 2.076169 1.390347l122.437832 108.995732c1.521277 1.384112 2.63106 3.323117 2.768225 5.542684l5.40552 65.09069c0.274329 4.158572 3.73461 7.481688 7.886946 7.618853l12.332317 0.417727a8.142571 8.142571 0 0 1 7.893181 7.749783l5.823248 80.471794c0.411493 6.36567-6.097576 10.935735-11.777425 8.304674m-149.577657-720.742226l-17.725367-54.017791 22.850323-32.127617 17.731602 34.203786 13.57303 36.286189-9.420693 25.899111-27.008895-10.243678z m-288.069946-173.263436l-24.932727-15.512034 17.731602-20.774155 22.850323 5.124956 26.042511 24.926492-8.304674 14.54565-33.387035-8.310909z"  horiz-adv-x="1246" />

    
    <glyph glyph-name="trend-up" unicode="&#58975;" d="M1826.707441 680.9704380000001v-371.604485c0-38.621814 26.095821-64.717635 65.761468-64.717635s65.761468 26.095821 65.761468 64.717635V765.520897C1957.186544 837.545362 1898.731906 896 1826.707441 896h-457.198776c-39.665647 0-65.761468-26.095821-65.761468-64.717635s26.095821-64.717635 65.761468-64.717635h359.078491l-554.275229-554.275229-417.53313 417.533129c-13.569827 12.525994-32.358818 19.832824-45.928644 19.832824-19.832824 0-32.358818-6.262997-45.928644-19.832824l-645.088685-647.176351c-26.095821-26.095821-26.095821-64.717635 0-90.813455 26.095821-26.095821 65.761468-26.095821 91.857288 0l600.203874 600.203873 417.533129-417.533129c13.569827-12.525994 32.358818-19.832824 45.928644-19.832824 19.832824 0 32.358818 6.262997 45.928645 19.832824l605.423037 606.46687z"  horiz-adv-x="1958" />

    
    <glyph glyph-name="trend-down" unicode="&#58976;" d="M1826.707441 87.029562V458.634047c0 39.665647 26.095821 64.717635 65.761468 64.717635s65.761468-26.095821 65.761468-64.717635v-456.154944c0-72.024465-58.454638-130.479103-130.479103-130.479103h-457.198777c-39.665647 0-65.761468 26.095821-65.761467 64.717635 0 39.665647 26.095821 64.717635 65.761467 64.717635h359.078492l-554.27523 554.275229-417.533129-417.533129c-13.569827-12.525994-32.358818-19.832824-45.928644-19.832824-19.832824 0-32.358818 6.262997-45.928645 19.832824l-646.132517 647.176351c-26.095821 26.095821-26.095821 65.761468 0 90.813455s65.761468 26.095821 91.857288 0l600.203874-600.203873 417.533129 417.533129c13.569827 13.569827 32.358818 19.832824 45.928644 19.832824 19.832824 0 32.358818-6.262997 45.928645-19.832824l605.423037-606.46687z"  horiz-adv-x="1958" />

    
    <glyph glyph-name="icon" unicode="&#58977;" d="M892.61574 486.290011V691.419979c135.286788 0 136.936627 6.599356 136.936628-68.193341-1.099893-75.342642-61.593985-136.936627-136.936628-136.936627z m-685.783029 0c-75.342642 0-136.936627 61.593985-136.936627 136.386681s1.649839 68.743287 136.936627 68.743287v-205.129968z m685.783029 273.323308c0 75.342642-61.593985 136.386681-136.936627 136.386681H344.319285c-75.892589 0-137.486574-61.593985-137.486574-136.386681-234.827068 0-205.679914 0-205.679914-136.386681C1.152797 510.487648 93.543775 418.646617 206.832711 418.646617c8.799141 0 15.398496 1.649839 24.197637 1.649838 46.195489-133.087003 154.534909-254.075188 284.872181-272.773362v-206.22986H412.512626c-18.698174 0-34.09667-15.398496-34.096671-34.09667 0-18.698174 15.398496-34.09667 34.096671-34.09667h274.4232c18.698174 0 34.09667 15.398496 34.096671 34.09667 0 18.698174-15.398496 34.09667-34.096671 34.09667h-102.839957v206.22986c130.337272 18.698174 238.126745 138.03652 284.872181 272.773362 6.599356 0 15.398496-1.649839 24.197637-1.649838 113.288937 0 205.679914 92.390977 205.679914 204.580021-2.199785 136.386681 26.947368 136.386681-206.229861 136.386681z"  horiz-adv-x="1098" />

    
    <glyph glyph-name="icon1" unicode="&#58978;" d="M233.531519 554.630595h-71.855852c-20.119639 0-35.927926-15.808287-35.927926-35.927926s15.808287-35.927926 35.927926-35.927926h71.855852v-71.855852c0-20.119639 15.808287-35.927926 35.927926-35.927926s35.927926 15.808287 35.927926 35.927926v71.855852h71.855853c20.119639 0 35.927926 15.808287 35.927926 35.927926s-15.808287 35.927926-35.927926 35.927926h-71.855853v71.855852c0 20.119639-15.808287 35.927926-35.927926 35.927926s-35.927926-15.808287-35.927926-35.927926v-71.855852z m528.859072-426.823761C751.612213 216.189532 675.44501 285.17115 583.469519 285.17115s-167.424135-68.981618-178.202513-157.364316c-36.646485-152.334406-107.783778-255.806834-189.69945-255.806834-119.280714 0-215.567556 217.004673-215.567556 485.027002 0 202.633503 55.329006 376.524665 133.651885 449.099075C188.980891 861.455084 265.866653 895.945893 350.656558 895.945893h11.496937c15.808287 0.718559 30.179458-5.748468 40.239277-17.963963 30.179458-36.646485 99.879634-63.23315 181.795306-63.23315s151.615848 25.868107 181.795305 63.23315C776.043203 890.197424 790.414373 896.664451 806.222661 895.945893h11.496936c84.789905 0 160.957109-34.490809 216.286115-89.819816 78.322879-72.574411 133.651885-246.465573 133.651885-449.099075 0-268.022328-96.286842-485.027002-215.567557-485.027002-81.915671 0-153.771524 103.472427-189.699449 255.806834z m153.771523 283.112057c59.640357 0 107.783778 48.143421 107.783779 107.783778s-48.143421 107.783778-107.783779 107.783778-107.783778-48.143421-107.783778-107.783778 48.143421-107.783778 107.783778-107.783778z"  horiz-adv-x="1167" />

    
    <glyph glyph-name="zhuyi" unicode="&#58979;" d="M512 896c282.836278 0 512-229.163722 512-512 0-282.836278-229.163722-512-512-512C229.163722-127.396938 0 101.766784 0 384 0 666.836278 229.163722 896 512 896z m0-968.518257c252.080094 0 456.518257 204.438163 456.518257 456.518257 0 252.080094-204.438163 456.518257-456.518257 456.518257-252.080094 0-456.518257-204.438163-456.518257-456.518257 0-252.080094 204.438163-456.518257 456.518257-456.518257z m0 719.453475c22.916372 0 41.611307-18.694935 41.611307-41.611308v-331.684334c0-22.916372-18.694935-41.611307-41.611307-41.611307S470.388693 250.723204 470.388693 273.639576v331.684334c0 22.916372 18.694935 41.611307 41.611307 41.611308z m0-470.388693c22.916372 0 41.611307-18.694935 41.611307-41.611307 0-22.916372-18.694935-41.611307-41.611307-41.611308S470.388693 112.018846 470.388693 134.935218c0 22.916372 18.694935 41.611307 41.611307 41.611307z"  horiz-adv-x="1024" />

    


  </font>
</defs>
</svg>
