<svg id="图层_1" data-name="图层 1" xmlns="http://www.w3.org/2000/svg" viewBox="0 0 850.01 300.5"><defs><style>.cls-1{fill:#29abe2;opacity:0.2;}</style></defs><title>画板 3</title><path d="M828.82,291.52c-9.7-4.06-20.7-8.65-32.82-13.94-10.87-4.75-16.75-10.12-17.47-16-1.18-9.62,10.85-19.75,24.36-30.15,1.48-1.13,3.77-2.67,6.66-4.6,14.24-9.55,40.74-27.32,40.14-45-.25-7.46-5.33-14.09-15.09-19.72C799.39,141.83,716.88,146,716.11,146c-3.74,0-375-2-464,1s-158.21-1.95-158.82-2C64,140.77,44.87,131.77,34.81,117.49c-13.5-19.16-8.22-45.17-3.57-68.11.28-1.41.57-2.8.84-4.19,2.47-12.36.78-22.61-5-30.49C17.63,1.92.91.07.21,0L0,2C.17,2,16.57,3.84,25.46,15.9c5.45,7.4,7,17.12,4.66,28.9-.27,1.38-.56,2.78-.84,4.18-4.74,23.34-10.1,49.79,3.89,69.66C43.57,133.4,63.12,142.67,93,147c.69,0,70.08,5,159.11,2s460.22-1,464-1c.82,0,82.74-4.13,117.44,15.87,9.13,5.26,13.87,11.34,14.09,18.06.56,16.56-25.34,33.92-39.26,43.26-2.92,1.95-5.23,3.5-6.76,4.68-14,10.76-26.44,21.31-25.13,32,.83,6.7,6.93,12.45,18.66,17.57,12.14,5.3,23.14,9.9,32.85,14,6.1,2.55,11.73,4.9,16.93,7.13h5C843.61,297.71,836.57,294.76,828.82,291.52Z"/><path class="cls-1" d="M828.82,291.52c-9.7-4.06-20.7-8.65-32.82-13.94-10.87-4.75-16.75-10.12-17.47-16-1.18-9.62,10.85-19.75,24.36-30.15,1.48-1.13,3.77-2.67,6.66-4.6,14.24-9.55,40.74-27.32,40.14-45-.25-7.46-5.33-14.09-15.09-19.72C799.39,141.83,716.88,146,716.11,146c-3.74,0-375-2-464,1s-158.21-1.95-158.82-2C64,140.77,44.87,131.77,34.81,117.49c-13.5-19.16-8.22-45.17-3.57-68.11.28-1.41.57-2.8.84-4.19,2.47-12.36.78-22.61-5-30.49C17.63,1.92.91.07.21,0L0,2C.17,2,16.57,3.84,25.46,15.9c5.45,7.4,7,17.12,4.66,28.9-.27,1.38-.56,2.78-.84,4.18-4.74,23.34-10.1,49.79,3.89,69.66C43.57,133.4,63.12,142.67,93,147c.69,0,70.08,5,159.11,2s460.22-1,464-1c.82,0,82.74-4.13,117.44,15.87,9.13,5.26,13.87,11.34,14.09,18.06.56,16.56-25.34,33.92-39.26,43.26-2.92,1.95-5.23,3.5-6.76,4.68-14,10.76-26.44,21.31-25.13,32,.83,6.7,6.93,12.45,18.66,17.57,12.14,5.3,23.14,9.9,32.85,14,6.1,2.55,11.73,4.9,16.93,7.13h5C843.61,297.71,836.57,294.76,828.82,291.52Z"/></svg>